<?xml version="1.0" encoding="UTF-8" standalone="no"?>
<!DOCTYPE svg PUBLIC "-//W3C//DTD SVG 1.1//EN"
 "http://www.w3.org/Graphics/SVG/1.1/DTD/svg11.dtd">
<!-- Generated by graphviz version 2.38.0 (20140413.2041)
 -->
<!-- Title: de.tu_clausthal.in.mec.modeling.model.storage.IModelStorage Pages: 1 -->
<svg width="250pt" height="214pt"
 viewBox="0.00 0.00 250.00 214.00" xmlns="http://www.w3.org/2000/svg" xmlns:xlink="http://www.w3.org/1999/xlink">
<g id="graph0" class="graph" transform="scale(1 1) rotate(0) translate(4 210)">
<title>de.tu_clausthal.in.mec.modeling.model.storage.IModelStorage</title>
<!-- Node0 -->
<g id="node1" class="node"><title>Node0</title>
<polygon fill="#bfbfbf" stroke="black" points="-1.42109e-14,-131.5 -1.42109e-14,-205.5 242,-205.5 242,-131.5 -1.42109e-14,-131.5"/>
<text text-anchor="start" x="8" y="-194.3" font-family="Helvetica,sans-Serif" font-size="9.00">de.tu_clausthal.in.mec.modeling.model.storage.</text>
<text text-anchor="middle" x="121" y="-184.3" font-family="Helvetica,sans-Serif" font-size="9.00">IModelStorage</text>
<polyline fill="none" stroke="black" points="-1.42109e-14,-177.5 242,-177.5 "/>
<text text-anchor="middle" x="121" y="-166.3" font-family="Helvetica,sans-Serif" font-size="9.00"> </text>
<polyline fill="none" stroke="black" points="-1.42109e-14,-159.5 242,-159.5 "/>
<text text-anchor="start" x="8" y="-148.3" font-family="Helvetica,sans-Serif" font-size="9.00">+ add()</text>
<text text-anchor="start" x="8" y="-138.3" font-family="Helvetica,sans-Serif" font-size="9.00">+ remove()</text>
</g>
<!-- Node1 -->
<g id="node2" class="node"><title>Node1</title>
<g id="a_node2"><a xlink:href="../../db/dc2/enumde_1_1tu__clausthal_1_1in_1_1mec_1_1modeling_1_1model_1_1storage_1_1EModelStorage.htm" target="_top" xlink:title="model storage ">
<polygon fill="none" stroke="black" points="-1.42109e-14,-0.5 -1.42109e-14,-94.5 242,-94.5 242,-0.5 -1.42109e-14,-0.5"/>
<text text-anchor="start" x="8" y="-83.3" font-family="Helvetica,sans-Serif" font-size="9.00">de.tu_clausthal.in.mec.modeling.model.storage.</text>
<text text-anchor="middle" x="121" y="-73.3" font-family="Helvetica,sans-Serif" font-size="9.00">EModelStorage</text>
<polyline fill="none" stroke="black" points="-1.42109e-14,-66.5 242,-66.5 "/>
<text text-anchor="start" x="8" y="-55.3" font-family="Helvetica,sans-Serif" font-size="9.00">&#45; m_model</text>
<polyline fill="none" stroke="black" points="-1.42109e-14,-48.5 242,-48.5 "/>
<text text-anchor="start" x="8" y="-37.3" font-family="Helvetica,sans-Serif" font-size="9.00">+ add()</text>
<text text-anchor="start" x="8" y="-27.3" font-family="Helvetica,sans-Serif" font-size="9.00">+ apply()</text>
<text text-anchor="start" x="8" y="-17.3" font-family="Helvetica,sans-Serif" font-size="9.00">+ get()</text>
<text text-anchor="start" x="8" y="-7.3" font-family="Helvetica,sans-Serif" font-size="9.00">+ remove()</text>
</a>
</g>
</g>
<!-- Node0&#45;&gt;Node1 -->
<g id="edge1" class="edge"><title>Node0&#45;&gt;Node1</title>
<path fill="none" stroke="midnightblue" d="M121,-121.372C121,-112.564 121,-103.344 121,-94.5391"/>
<polygon fill="none" stroke="midnightblue" points="117.5,-121.473 121,-131.473 124.5,-121.473 117.5,-121.473"/>
</g>
</g>
</svg>
