<?xml version="1.0" encoding="UTF-8" standalone="no"?>
<!DOCTYPE svg PUBLIC "-//W3C//DTD SVG 1.1//EN"
 "http://www.w3.org/Graphics/SVG/1.1/DTD/svg11.dtd">
<!-- Generated by graphviz version 2.38.0 (20140413.2041)
 -->
<!-- Title: de.tu_clausthal.in.mec.modeling.model.petrinet.CPetrinet Pages: 1 -->
<svg width="251pt" height="455pt"
 viewBox="0.00 0.00 251.00 455.00" xmlns="http://www.w3.org/2000/svg" xmlns:xlink="http://www.w3.org/1999/xlink">
<g id="graph0" class="graph" transform="scale(1 1) rotate(0) translate(4 451)">
<title>de.tu_clausthal.in.mec.modeling.model.petrinet.CPetrinet</title>
<!-- Node0 -->
<g id="node1" class="node"><title>Node0</title>
<polygon fill="#bfbfbf" stroke="black" points="0,-0.5 0,-174.5 243,-174.5 243,-0.5 0,-0.5"/>
<text text-anchor="start" x="8" y="-163.3" font-family="Helvetica,sans-Serif" font-size="9.00">de.tu_clausthal.in.mec.modeling.model.petrinet.</text>
<text text-anchor="middle" x="121.5" y="-153.3" font-family="Helvetica,sans-Serif" font-size="9.00">CPetrinet</text>
<polyline fill="none" stroke="black" points="0,-146.5 243,-146.5 "/>
<text text-anchor="start" x="8" y="-135.3" font-family="Helvetica,sans-Serif" font-size="9.00">&#45; m_network</text>
<polyline fill="none" stroke="black" points="0,-128.5 243,-128.5 "/>
<text text-anchor="start" x="8" y="-117.3" font-family="Helvetica,sans-Serif" font-size="9.00">+ CPetrinet()</text>
<text text-anchor="start" x="8" y="-107.3" font-family="Helvetica,sans-Serif" font-size="9.00">+ addPlace()</text>
<text text-anchor="start" x="8" y="-97.3" font-family="Helvetica,sans-Serif" font-size="9.00">+ addTransition()</text>
<text text-anchor="start" x="8" y="-87.3" font-family="Helvetica,sans-Serif" font-size="9.00">+ call()</text>
<text text-anchor="start" x="8" y="-77.3" font-family="Helvetica,sans-Serif" font-size="9.00">+ connect()</text>
<text text-anchor="start" x="8" y="-67.3" font-family="Helvetica,sans-Serif" font-size="9.00">+ description()</text>
<text text-anchor="start" x="8" y="-57.3" font-family="Helvetica,sans-Serif" font-size="9.00">+ equals()</text>
<text text-anchor="start" x="8" y="-47.3" font-family="Helvetica,sans-Serif" font-size="9.00">+ hashCode()</text>
<text text-anchor="start" x="8" y="-37.3" font-family="Helvetica,sans-Serif" font-size="9.00">+ id()</text>
<text text-anchor="start" x="8" y="-27.3" font-family="Helvetica,sans-Serif" font-size="9.00">+ serialize()</text>
<text text-anchor="start" x="8" y="-17.3" font-family="Helvetica,sans-Serif" font-size="9.00">+ terminated()</text>
<text text-anchor="start" x="8" y="-7.3" font-family="Helvetica,sans-Serif" font-size="9.00">~ raw()</text>
</g>
<!-- Node1 -->
<g id="node2" class="node"><title>Node1</title>
<g id="a_node2"><a xlink:href="../../d1/d3e/interfacede_1_1tu__clausthal_1_1in_1_1mec_1_1modeling_1_1model_1_1petrinet_1_1IPetrinet.htm" target="_top" xlink:title="interface of a petrinet ">
<polygon fill="none" stroke="black" points="0,-211.5 0,-295.5 243,-295.5 243,-211.5 0,-211.5"/>
<text text-anchor="start" x="8" y="-284.3" font-family="Helvetica,sans-Serif" font-size="9.00">de.tu_clausthal.in.mec.modeling.model.petrinet.</text>
<text text-anchor="middle" x="121.5" y="-274.3" font-family="Helvetica,sans-Serif" font-size="9.00">IPetrinet</text>
<polyline fill="none" stroke="black" points="0,-267.5 243,-267.5 "/>
<text text-anchor="middle" x="121.5" y="-256.3" font-family="Helvetica,sans-Serif" font-size="9.00"> </text>
<polyline fill="none" stroke="black" points="0,-249.5 243,-249.5 "/>
<text text-anchor="start" x="8" y="-238.3" font-family="Helvetica,sans-Serif" font-size="9.00">+ addPlace()</text>
<text text-anchor="start" x="8" y="-228.3" font-family="Helvetica,sans-Serif" font-size="9.00">+ addTransition()</text>
<text text-anchor="start" x="8" y="-218.3" font-family="Helvetica,sans-Serif" font-size="9.00">+ connect()</text>
</a>
</g>
</g>
<!-- Node1&#45;&gt;Node0 -->
<g id="edge1" class="edge"><title>Node1&#45;&gt;Node0</title>
<path fill="none" stroke="midnightblue" d="M121.5,-201.097C121.5,-192.653 121.5,-183.704 121.5,-174.687"/>
<polygon fill="none" stroke="midnightblue" points="118,-201.116 121.5,-211.116 125,-201.116 118,-201.116"/>
</g>
<!-- Node2 -->
<g id="node3" class="node"><title>Node2</title>
<g id="a_node3"><a xlink:href="../../d3/d97/interfacede_1_1tu__clausthal_1_1in_1_1mec_1_1modeling_1_1model_1_1IModel.htm" target="_top" xlink:title="interface of a model ">
<polygon fill="none" stroke="black" points="59,-332.5 59,-446.5 184,-446.5 184,-332.5 59,-332.5"/>
<text text-anchor="start" x="67" y="-435.3" font-family="Helvetica,sans-Serif" font-size="9.00">de::tu_clausthal::in</text>
<text text-anchor="start" x="67" y="-425.3" font-family="Helvetica,sans-Serif" font-size="9.00">::mec::modeling::model</text>
<text text-anchor="middle" x="121.5" y="-415.3" font-family="Helvetica,sans-Serif" font-size="9.00">::IModel&lt; IPetrinet &gt;</text>
<polyline fill="none" stroke="black" points="59,-408.5 184,-408.5 "/>
<text text-anchor="middle" x="121.5" y="-397.3" font-family="Helvetica,sans-Serif" font-size="9.00"> </text>
<polyline fill="none" stroke="black" points="59,-390.5 184,-390.5 "/>
<text text-anchor="start" x="67" y="-379.3" font-family="Helvetica,sans-Serif" font-size="9.00">+ description()</text>
<text text-anchor="start" x="67" y="-369.3" font-family="Helvetica,sans-Serif" font-size="9.00">+ id()</text>
<text text-anchor="start" x="67" y="-359.3" font-family="Helvetica,sans-Serif" font-size="9.00">+ raw()</text>
<text text-anchor="start" x="67" y="-349.3" font-family="Helvetica,sans-Serif" font-size="9.00">+ serialize()</text>
<text text-anchor="start" x="67" y="-339.3" font-family="Helvetica,sans-Serif" font-size="9.00">+ terminated()</text>
</a>
</g>
</g>
<!-- Node2&#45;&gt;Node1 -->
<g id="edge2" class="edge"><title>Node2&#45;&gt;Node1</title>
<path fill="none" stroke="midnightblue" d="M121.5,-322.251C121.5,-313.18 121.5,-304.091 121.5,-295.649"/>
<polygon fill="none" stroke="midnightblue" points="118,-322.448 121.5,-332.448 125,-322.448 118,-322.448"/>
</g>
</g>
</svg>
