<?xml version="1.0" encoding="UTF-8" standalone="no"?>
<!DOCTYPE svg PUBLIC "-//W3C//DTD SVG 1.1//EN"
 "http://www.w3.org/Graphics/SVG/1.1/DTD/svg11.dtd">
<!-- Generated by graphviz version 2.38.0 (20140413.2041)
 -->
<!-- Title: de.tu_clausthal.in.mec.modeling.controller.CModelController.list Pages: 1 -->
<svg width="465pt" height="84pt"
 viewBox="0.00 0.00 465.00 84.00" xmlns="http://www.w3.org/2000/svg" xmlns:xlink="http://www.w3.org/1999/xlink">
<g id="graph0" class="graph" transform="scale(1 1) rotate(0) translate(4 80)">
<title>de.tu_clausthal.in.mec.modeling.controller.CModelController.list</title>
<!-- Node2 -->
<g id="node1" class="node"><title>Node2</title>
<polygon fill="#bfbfbf" stroke="black" points="0,-23.5 0,-51.5 218,-51.5 218,-23.5 0,-23.5"/>
<text text-anchor="start" x="8" y="-40.3" font-family="Helvetica,sans-Serif" font-size="9.00">de.tu_clausthal.in.mec.modeling.controller.</text>
<text text-anchor="middle" x="109" y="-30.3" font-family="Helvetica,sans-Serif" font-size="9.00">CModelController.list</text>
</g>
<!-- Node3 -->
<g id="node2" class="node"><title>Node3</title>
<g id="a_node2"><a xlink:href="../../d3/d97/interfacede_1_1tu__clausthal_1_1in_1_1mec_1_1modeling_1_1model_1_1IModel.htm#a306b630224317eb8f4def013d974821a" target="_top" xlink:title="returns the model description ">
<polygon fill="none" stroke="black" points="254,-47.5 254,-75.5 457,-75.5 457,-47.5 254,-47.5"/>
<text text-anchor="start" x="262" y="-64.3" font-family="Helvetica,sans-Serif" font-size="9.00">de.tu_clausthal.in.mec.modeling.model.</text>
<text text-anchor="middle" x="355.5" y="-54.3" font-family="Helvetica,sans-Serif" font-size="9.00">IModel.description</text>
</a>
</g>
</g>
<!-- Node2&#45;&gt;Node3 -->
<g id="edge1" class="edge"><title>Node2&#45;&gt;Node3</title>
<path fill="none" stroke="midnightblue" d="M218.309,-48.1316C226.664,-48.9516 235.106,-49.7804 243.478,-50.6021"/>
<polygon fill="midnightblue" stroke="midnightblue" points="243.35,-54.1063 253.644,-51.6 244.033,-47.1397 243.35,-54.1063"/>
</g>
<!-- Node4 -->
<g id="node3" class="node"><title>Node4</title>
<g id="a_node3"><a xlink:href="../../d3/d97/interfacede_1_1tu__clausthal_1_1in_1_1mec_1_1modeling_1_1model_1_1IModel.htm#a9dd7df7d6006849aff2b0644d8e63823" target="_top" xlink:title="returns the model id ">
<polygon fill="none" stroke="black" points="254,-0.5 254,-28.5 457,-28.5 457,-0.5 254,-0.5"/>
<text text-anchor="start" x="262" y="-17.3" font-family="Helvetica,sans-Serif" font-size="9.00">de.tu_clausthal.in.mec.modeling.model.</text>
<text text-anchor="middle" x="355.5" y="-7.3" font-family="Helvetica,sans-Serif" font-size="9.00">IModel.id</text>
</a>
</g>
</g>
<!-- Node2&#45;&gt;Node4 -->
<g id="edge2" class="edge"><title>Node2&#45;&gt;Node4</title>
<path fill="none" stroke="midnightblue" d="M218.309,-27.3114C226.664,-26.5255 235.106,-25.7313 243.478,-24.9438"/>
<polygon fill="midnightblue" stroke="midnightblue" points="244.015,-28.4088 253.644,-23.9875 243.36,-21.4395 244.015,-28.4088"/>
</g>
</g>
</svg>
