<?xml version="1.0" encoding="UTF-8" standalone="no"?>
<!DOCTYPE svg PUBLIC "-//W3C//DTD SVG 1.1//EN"
 "http://www.w3.org/Graphics/SVG/1.1/DTD/svg11.dtd">
<!-- Generated by graphviz version 2.38.0 (20140413.2041)
 -->
<!-- Title: de.tu_clausthal.in.mec.modeling.model.petrinet.CPetrinetChecker Pages: 1 -->
<svg width="251pt" height="285pt"
 viewBox="0.00 0.00 251.00 285.00" xmlns="http://www.w3.org/2000/svg" xmlns:xlink="http://www.w3.org/1999/xlink">
<g id="graph0" class="graph" transform="scale(1 1) rotate(0) translate(4 281)">
<title>de.tu_clausthal.in.mec.modeling.model.petrinet.CPetrinetChecker</title>
<!-- Node3 -->
<g id="node1" class="node"><title>Node3</title>
<polygon fill="#bfbfbf" stroke="black" points="0,-0.5 0,-64.5 243,-64.5 243,-0.5 0,-0.5"/>
<text text-anchor="start" x="8" y="-53.3" font-family="Helvetica,sans-Serif" font-size="9.00">de.tu_clausthal.in.mec.modeling.model.petrinet.</text>
<text text-anchor="middle" x="121.5" y="-43.3" font-family="Helvetica,sans-Serif" font-size="9.00">CPetrinetChecker</text>
<polyline fill="none" stroke="black" points="0,-36.5 243,-36.5 "/>
<text text-anchor="middle" x="121.5" y="-25.3" font-family="Helvetica,sans-Serif" font-size="9.00"> </text>
<polyline fill="none" stroke="black" points="0,-18.5 243,-18.5 "/>
<text text-anchor="start" x="8" y="-7.3" font-family="Helvetica,sans-Serif" font-size="9.00">+ apply()</text>
</g>
<!-- Node4 -->
<g id="node2" class="node"><title>Node4</title>
<g id="a_node2"><a xlink:href="../../de/dd9/interfacede_1_1tu__clausthal_1_1in_1_1mec_1_1modeling_1_1model_1_1petrinet_1_1IPetrinetChecker.htm" target="_top" xlink:title="petrinet model checker ">
<polygon fill="none" stroke="black" points="0,-101.5 0,-165.5 243,-165.5 243,-101.5 0,-101.5"/>
<text text-anchor="start" x="8" y="-154.3" font-family="Helvetica,sans-Serif" font-size="9.00">de.tu_clausthal.in.mec.modeling.model.petrinet.</text>
<text text-anchor="middle" x="121.5" y="-144.3" font-family="Helvetica,sans-Serif" font-size="9.00">IPetrinetChecker</text>
<polyline fill="none" stroke="black" points="0,-137.5 243,-137.5 "/>
<text text-anchor="middle" x="121.5" y="-126.3" font-family="Helvetica,sans-Serif" font-size="9.00"> </text>
<polyline fill="none" stroke="black" points="0,-119.5 243,-119.5 "/>
<text text-anchor="middle" x="121.5" y="-108.3" font-family="Helvetica,sans-Serif" font-size="9.00"> </text>
</a>
</g>
</g>
<!-- Node4&#45;&gt;Node3 -->
<g id="edge1" class="edge"><title>Node4&#45;&gt;Node3</title>
<path fill="none" stroke="midnightblue" d="M121.5,-91.2823C121.5,-82.4203 121.5,-73.1938 121.5,-64.7828"/>
<polygon fill="none" stroke="midnightblue" points="118,-91.4474 121.5,-101.447 125,-91.4474 118,-91.4474"/>
</g>
<!-- Node5 -->
<g id="node3" class="node"><title>Node5</title>
<g id="a_node3"><a xlink:href="../../dc/dce/interfacede_1_1tu__clausthal_1_1in_1_1mec_1_1modeling_1_1model_1_1IChecker.htm" target="_top" xlink:title="model checker interface ">
<polygon fill="none" stroke="black" points="59,-202.5 59,-276.5 184,-276.5 184,-202.5 59,-202.5"/>
<text text-anchor="start" x="67" y="-265.3" font-family="Helvetica,sans-Serif" font-size="9.00">de::tu_clausthal::in</text>
<text text-anchor="start" x="67" y="-255.3" font-family="Helvetica,sans-Serif" font-size="9.00">::mec::modeling::model</text>
<text text-anchor="middle" x="121.5" y="-245.3" font-family="Helvetica,sans-Serif" font-size="9.00">::IChecker&lt; IPetrinet &gt;</text>
<polyline fill="none" stroke="black" points="59,-238.5 184,-238.5 "/>
<text text-anchor="middle" x="121.5" y="-227.3" font-family="Helvetica,sans-Serif" font-size="9.00"> </text>
<polyline fill="none" stroke="black" points="59,-220.5 184,-220.5 "/>
<text text-anchor="middle" x="121.5" y="-209.3" font-family="Helvetica,sans-Serif" font-size="9.00"> </text>
</a>
</g>
</g>
<!-- Node5&#45;&gt;Node4 -->
<g id="edge2" class="edge"><title>Node5&#45;&gt;Node4</title>
<path fill="none" stroke="midnightblue" d="M121.5,-192.38C121.5,-183.347 121.5,-174.074 121.5,-165.67"/>
<polygon fill="none" stroke="midnightblue" points="118,-192.418 121.5,-202.418 125,-192.418 118,-192.418"/>
</g>
</g>
</svg>
