<?xml version="1.0" encoding="UTF-8" standalone="no"?>
<!DOCTYPE svg PUBLIC "-//W3C//DTD SVG 1.1//EN"
 "http://www.w3.org/Graphics/SVG/1.1/DTD/svg11.dtd">
<!-- Generated by graphviz version 2.38.0 (20140413.2041)
 -->
<!-- Title: de.tu_clausthal.in.mec.modeling.model.graph.IBaseEdge Pages: 1 -->
<svg width="251pt" height="355pt"
 viewBox="0.00 0.00 251.00 355.00" xmlns="http://www.w3.org/2000/svg" xmlns:xlink="http://www.w3.org/1999/xlink">
<g id="graph0" class="graph" transform="scale(1 1) rotate(0) translate(4 351)">
<title>de.tu_clausthal.in.mec.modeling.model.graph.IBaseEdge</title>
<!-- Node0 -->
<g id="node1" class="node"><title>Node0</title>
<polygon fill="#bfbfbf" stroke="black" points="5,-101.5 5,-235.5 238,-235.5 238,-101.5 5,-101.5"/>
<text text-anchor="start" x="13" y="-224.3" font-family="Helvetica,sans-Serif" font-size="9.00">de.tu_clausthal.in.mec.modeling.model.graph.</text>
<text text-anchor="middle" x="121.5" y="-214.3" font-family="Helvetica,sans-Serif" font-size="9.00">IBaseEdge</text>
<polyline fill="none" stroke="black" points="5,-207.5 238,-207.5 "/>
<text text-anchor="start" x="13" y="-196.3" font-family="Helvetica,sans-Serif" font-size="9.00"># m_id</text>
<text text-anchor="start" x="13" y="-186.3" font-family="Helvetica,sans-Serif" font-size="9.00">&#45; m_weightfunction</text>
<polyline fill="none" stroke="black" points="5,-179.5 238,-179.5 "/>
<text text-anchor="start" x="13" y="-168.3" font-family="Helvetica,sans-Serif" font-size="9.00">+ equals()</text>
<text text-anchor="start" x="13" y="-158.3" font-family="Helvetica,sans-Serif" font-size="9.00">+ get()</text>
<text text-anchor="start" x="13" y="-148.3" font-family="Helvetica,sans-Serif" font-size="9.00">+ hashCode()</text>
<text text-anchor="start" x="13" y="-138.3" font-family="Helvetica,sans-Serif" font-size="9.00">+ id()</text>
<text text-anchor="start" x="13" y="-128.3" font-family="Helvetica,sans-Serif" font-size="9.00">+ raw()</text>
<text text-anchor="start" x="13" y="-118.3" font-family="Helvetica,sans-Serif" font-size="9.00"># IBaseEdge()</text>
<text text-anchor="start" x="13" y="-108.3" font-family="Helvetica,sans-Serif" font-size="9.00"># IBaseEdge()</text>
</g>
<!-- Node2 -->
<g id="node3" class="node"><title>Node2</title>
<g id="a_node3"><a xlink:href="../../d7/db3/classde_1_1tu__clausthal_1_1in_1_1mec_1_1modeling_1_1model_1_1petrinet_1_1CPetrinetEdge.htm" target="_top" xlink:title="connection class ">
<polygon fill="none" stroke="black" points="0,-0.5 0,-64.5 243,-64.5 243,-0.5 0,-0.5"/>
<text text-anchor="start" x="8" y="-53.3" font-family="Helvetica,sans-Serif" font-size="9.00">de.tu_clausthal.in.mec.modeling.model.petrinet.</text>
<text text-anchor="middle" x="121.5" y="-43.3" font-family="Helvetica,sans-Serif" font-size="9.00">CPetrinetEdge</text>
<polyline fill="none" stroke="black" points="0,-36.5 243,-36.5 "/>
<text text-anchor="start" x="8" y="-25.3" font-family="Helvetica,sans-Serif" font-size="9.00">&#45; m_capacity</text>
<polyline fill="none" stroke="black" points="0,-18.5 243,-18.5 "/>
<text text-anchor="start" x="8" y="-7.3" font-family="Helvetica,sans-Serif" font-size="9.00">+ CPetrinetEdge()</text>
</a>
</g>
</g>
<!-- Node0&#45;&gt;Node2 -->
<g id="edge2" class="edge"><title>Node0&#45;&gt;Node2</title>
<path fill="none" stroke="midnightblue" d="M121.5,-91.1186C121.5,-81.8064 121.5,-72.7409 121.5,-64.6608"/>
<polygon fill="none" stroke="midnightblue" points="118,-91.2851 121.5,-101.285 125,-91.2852 118,-91.2851"/>
</g>
<!-- Node1 -->
<g id="node2" class="node"><title>Node1</title>
<g id="a_node2"><a xlink:href="../../d3/d76/interfacede_1_1tu__clausthal_1_1in_1_1mec_1_1modeling_1_1model_1_1graph_1_1IEdge.htm" target="_top" xlink:title="interface of an edge ">
<polygon fill="none" stroke="black" points="5,-272.5 5,-346.5 238,-346.5 238,-272.5 5,-272.5"/>
<text text-anchor="start" x="13" y="-335.3" font-family="Helvetica,sans-Serif" font-size="9.00">de.tu_clausthal.in.mec.modeling.model.graph.</text>
<text text-anchor="middle" x="121.5" y="-325.3" font-family="Helvetica,sans-Serif" font-size="9.00">IEdge</text>
<polyline fill="none" stroke="black" points="5,-318.5 238,-318.5 "/>
<text text-anchor="middle" x="121.5" y="-307.3" font-family="Helvetica,sans-Serif" font-size="9.00"> </text>
<polyline fill="none" stroke="black" points="5,-300.5 238,-300.5 "/>
<text text-anchor="start" x="13" y="-289.3" font-family="Helvetica,sans-Serif" font-size="9.00">+ id()</text>
<text text-anchor="start" x="13" y="-279.3" font-family="Helvetica,sans-Serif" font-size="9.00">+ raw()</text>
</a>
</g>
</g>
<!-- Node1&#45;&gt;Node0 -->
<g id="edge1" class="edge"><title>Node1&#45;&gt;Node0</title>
<path fill="none" stroke="midnightblue" d="M121.5,-262.233C121.5,-253.698 121.5,-244.634 121.5,-235.645"/>
<polygon fill="none" stroke="midnightblue" points="118,-262.342 121.5,-272.342 125,-262.342 118,-262.342"/>
</g>
</g>
</svg>
