<?xml version="1.0" encoding="UTF-8" standalone="no"?>
<!DOCTYPE svg PUBLIC "-//W3C//DTD SVG 1.1//EN"
 "http://www.w3.org/Graphics/SVG/1.1/DTD/svg11.dtd">
<!-- Generated by graphviz version 2.38.0 (20140413.2041)
 -->
<!-- Title: Grafische Darstellung der Klassenhierarchie Pages: 1 -->
<svg width="558pt" height="218pt"
 viewBox="0.00 0.00 558.00 218.00" xmlns="http://www.w3.org/2000/svg" xmlns:xlink="http://www.w3.org/1999/xlink">
<g id="graph0" class="graph" transform="scale(1 1) rotate(0) translate(4 214)">
<title>Grafische Darstellung der Klassenhierarchie</title>
<!-- Node0 -->
<g id="node1" class="node"><title>Node0</title>
<g id="a_node1"><a xlink:href="d8/de9/classde_1_1tu__clausthal_1_1in_1_1mec_1_1modeling_1_1model_1_1graph_1_1jung_1_1IBaseGraph.htm" target="_top" xlink:title="de.tu_clausthal.in.mec.modeling.model.graph.jung.\lIBaseGraph\&lt; N, E \&gt;">
<polygon fill="none" stroke="black" points="0,-90.5 0,-118.5 257,-118.5 257,-90.5 0,-90.5"/>
<text text-anchor="start" x="8" y="-107.3" font-family="Helvetica,sans-Serif" font-size="9.00">de.tu_clausthal.in.mec.modeling.model.graph.jung.</text>
<text text-anchor="middle" x="128.5" y="-97.3" font-family="Helvetica,sans-Serif" font-size="9.00">IBaseGraph&lt; N, E &gt;</text>
</a>
</g>
</g>
<!-- Node1 -->
<g id="node2" class="node"><title>Node1</title>
<g id="a_node2"><a xlink:href="d5/d34/classde_1_1tu__clausthal_1_1in_1_1mec_1_1modeling_1_1model_1_1graph_1_1jung_1_1CDirectedGraph.htm" target="_top" xlink:title="directed graph ">
<polygon fill="none" stroke="black" points="293,-171.5 293,-209.5 550,-209.5 550,-171.5 293,-171.5"/>
<text text-anchor="start" x="301" y="-198.3" font-family="Helvetica,sans-Serif" font-size="9.00">de.tu_clausthal.in.mec.modeling.model.graph.jung.</text>
<text text-anchor="start" x="301" y="-188.3" font-family="Helvetica,sans-Serif" font-size="9.00">CDirectedGraph&lt; N extends INode, E</text>
<text text-anchor="middle" x="421.5" y="-178.3" font-family="Helvetica,sans-Serif" font-size="9.00"> extends IEdge &gt;</text>
</a>
</g>
</g>
<!-- Node0&#45;&gt;Node1 -->
<g id="edge1" class="edge"><title>Node0&#45;&gt;Node1</title>
<path fill="none" stroke="midnightblue" d="M174.805,-122.289C207.351,-134.644 252.455,-150.905 293,-162.5 304.004,-165.647 315.628,-168.642 327.199,-171.422"/>
<polygon fill="midnightblue" stroke="midnightblue" points="175.717,-118.89 165.126,-118.589 173.218,-125.429 175.717,-118.89"/>
</g>
<!-- Node2 -->
<g id="node3" class="node"><title>Node2</title>
<g id="a_node3"><a xlink:href="d1/d1c/classde_1_1tu__clausthal_1_1in_1_1mec_1_1modeling_1_1model_1_1graph_1_1jung_1_1CDirectedMultiGraph.htm" target="_top" xlink:title="directed multi graph ">
<polygon fill="none" stroke="black" points="293,-114.5 293,-152.5 550,-152.5 550,-114.5 293,-114.5"/>
<text text-anchor="start" x="301" y="-141.3" font-family="Helvetica,sans-Serif" font-size="9.00">de.tu_clausthal.in.mec.modeling.model.graph.jung.</text>
<text text-anchor="start" x="301" y="-131.3" font-family="Helvetica,sans-Serif" font-size="9.00">CDirectedMultiGraph&lt; N extends INode,</text>
<text text-anchor="middle" x="421.5" y="-121.3" font-family="Helvetica,sans-Serif" font-size="9.00"> E extends IEdge &gt;</text>
</a>
</g>
</g>
<!-- Node0&#45;&gt;Node2 -->
<g id="edge2" class="edge"><title>Node0&#45;&gt;Node2</title>
<path fill="none" stroke="midnightblue" d="M267.089,-118.212C275.586,-119.058 284.12,-119.909 292.574,-120.751"/>
<polygon fill="midnightblue" stroke="midnightblue" points="267.435,-114.729 257.137,-117.22 266.74,-121.694 267.435,-114.729"/>
</g>
<!-- Node3 -->
<g id="node4" class="node"><title>Node3</title>
<g id="a_node4"><a xlink:href="d2/d59/classde_1_1tu__clausthal_1_1in_1_1mec_1_1modeling_1_1model_1_1graph_1_1jung_1_1CUndirectedGraph.htm" target="_top" xlink:title="undirected graph ">
<polygon fill="none" stroke="black" points="293,-57.5 293,-95.5 550,-95.5 550,-57.5 293,-57.5"/>
<text text-anchor="start" x="301" y="-84.3" font-family="Helvetica,sans-Serif" font-size="9.00">de.tu_clausthal.in.mec.modeling.model.graph.jung.</text>
<text text-anchor="start" x="301" y="-74.3" font-family="Helvetica,sans-Serif" font-size="9.00">CUndirectedGraph&lt; N extends INode,</text>
<text text-anchor="middle" x="421.5" y="-64.3" font-family="Helvetica,sans-Serif" font-size="9.00"> E extends IEdge &gt;</text>
</a>
</g>
</g>
<!-- Node0&#45;&gt;Node3 -->
<g id="edge3" class="edge"><title>Node0&#45;&gt;Node3</title>
<path fill="none" stroke="midnightblue" d="M267.366,-91.2346C275.772,-90.4257 284.212,-89.6136 292.574,-88.8091"/>
<polygon fill="midnightblue" stroke="midnightblue" points="266.756,-87.777 257.137,-92.2188 267.426,-94.7448 266.756,-87.777"/>
</g>
<!-- Node4 -->
<g id="node5" class="node"><title>Node4</title>
<g id="a_node5"><a xlink:href="d3/d6b/classde_1_1tu__clausthal_1_1in_1_1mec_1_1modeling_1_1model_1_1graph_1_1jung_1_1CUndirectedMultiGraph.htm" target="_top" xlink:title="undirected multi graph ">
<polygon fill="none" stroke="black" points="293,-0.5 293,-38.5 550,-38.5 550,-0.5 293,-0.5"/>
<text text-anchor="start" x="301" y="-27.3" font-family="Helvetica,sans-Serif" font-size="9.00">de.tu_clausthal.in.mec.modeling.model.graph.jung.</text>
<text text-anchor="start" x="301" y="-17.3" font-family="Helvetica,sans-Serif" font-size="9.00">CUndirectedMultiGraph&lt; N extends INode,</text>
<text text-anchor="middle" x="421.5" y="-7.3" font-family="Helvetica,sans-Serif" font-size="9.00"> E extends IEdge &gt;</text>
</a>
</g>
</g>
<!-- Node0&#45;&gt;Node4 -->
<g id="edge4" class="edge"><title>Node0&#45;&gt;Node4</title>
<path fill="none" stroke="midnightblue" d="M176.479,-86.9232C208.932,-75.1491 253.243,-59.7954 293,-48.5 305.228,-45.0258 318.208,-41.6838 331.025,-38.5825"/>
<polygon fill="midnightblue" stroke="midnightblue" points="175,-83.7371 166.806,-90.4538 177.4,-90.3127 175,-83.7371"/>
</g>
</g>
</svg>
