<?xml version="1.0" encoding="UTF-8" standalone="no"?>
<!DOCTYPE svg PUBLIC "-//W3C//DTD SVG 1.1//EN"
 "http://www.w3.org/Graphics/SVG/1.1/DTD/svg11.dtd">
<!-- Generated by graphviz version 2.38.0 (20140413.2041)
 -->
<!-- Title: Grafische Darstellung der Klassenhierarchie Pages: 1 -->
<svg width="1357pt" height="272pt"
 viewBox="0.00 0.00 1357.00 272.00" xmlns="http://www.w3.org/2000/svg" xmlns:xlink="http://www.w3.org/1999/xlink">
<g id="graph0" class="graph" transform="scale(1 1) rotate(0) translate(4 268)">
<title>Grafische Darstellung der Klassenhierarchie</title>
<!-- Node34 -->
<g id="node1" class="node"><title>Node34</title>
<polygon fill="none" stroke="#bfbfbf" points="358.5,-115.5 358.5,-133.5 422.5,-133.5 422.5,-115.5 358.5,-115.5"/>
<text text-anchor="middle" x="390.5" y="-122.3" font-family="Helvetica,sans-Serif" font-size="9.00">Consumer</text>
</g>
<!-- Node5 -->
<g id="node2" class="node"><title>Node5</title>
<g id="a_node2"><a xlink:href="d8/d0b/interfacede_1_1tu__clausthal_1_1in_1_1mec_1_1modeling_1_1model_1_1petrinet_1_1IPlace.htm" target="_top" xlink:title="interface of a petri&#45;net place ">
<polygon fill="none" stroke="black" points="548,-141.5 548,-169.5 791,-169.5 791,-141.5 548,-141.5"/>
<text text-anchor="start" x="556" y="-158.3" font-family="Helvetica,sans-Serif" font-size="9.00">de.tu_clausthal.in.mec.modeling.model.petrinet.</text>
<text text-anchor="middle" x="669.5" y="-148.3" font-family="Helvetica,sans-Serif" font-size="9.00">IPlace</text>
</a>
</g>
</g>
<!-- Node34&#45;&gt;Node5 -->
<g id="edge1" class="edge"><title>Node34&#45;&gt;Node5</title>
<path fill="none" stroke="midnightblue" d="M432.982,-129.142C463.503,-132.558 506.654,-137.387 547.696,-141.98"/>
<polygon fill="midnightblue" stroke="midnightblue" points="433.064,-125.63 422.737,-127.996 432.286,-132.586 433.064,-125.63"/>
</g>
<!-- Node6 -->
<g id="node3" class="node"><title>Node6</title>
<g id="a_node3"><a xlink:href="de/dc7/classde_1_1tu__clausthal_1_1in_1_1mec_1_1modeling_1_1model_1_1petrinet_1_1CPlace.htm" target="_top" xlink:title="petrinet place ">
<polygon fill="none" stroke="black" points="827,-153.5 827,-181.5 1070,-181.5 1070,-153.5 827,-153.5"/>
<text text-anchor="start" x="835" y="-170.3" font-family="Helvetica,sans-Serif" font-size="9.00">de.tu_clausthal.in.mec.modeling.model.petrinet.</text>
<text text-anchor="middle" x="948.5" y="-160.3" font-family="Helvetica,sans-Serif" font-size="9.00">CPlace</text>
</a>
</g>
</g>
<!-- Node5&#45;&gt;Node6 -->
<g id="edge2" class="edge"><title>Node5&#45;&gt;Node6</title>
<path fill="none" stroke="midnightblue" d="M801.188,-161.162C809.727,-161.532 818.306,-161.903 826.794,-162.271"/>
<polygon fill="midnightblue" stroke="midnightblue" points="801.333,-157.665 791.19,-160.728 801.03,-164.658 801.333,-157.665"/>
</g>
<!-- Node33 -->
<g id="node4" class="node"><title>Node33</title>
<polygon fill="none" stroke="#bfbfbf" points="362.5,-152.5 362.5,-170.5 418.5,-170.5 418.5,-152.5 362.5,-152.5"/>
<text text-anchor="middle" x="390.5" y="-159.3" font-family="Helvetica,sans-Serif" font-size="9.00">Function</text>
</g>
<!-- Node33&#45;&gt;Node5 -->
<g id="edge3" class="edge"><title>Node33&#45;&gt;Node5</title>
<path fill="none" stroke="midnightblue" d="M428.792,-160.692C459.512,-160.027 504.86,-159.045 547.869,-158.113"/>
<polygon fill="midnightblue" stroke="midnightblue" points="428.486,-157.198 418.564,-160.914 428.638,-164.196 428.486,-157.198"/>
</g>
<!-- Node7 -->
<g id="node5" class="node"><title>Node7</title>
<g id="a_node5"><a xlink:href="de/d17/interfacede_1_1tu__clausthal_1_1in_1_1mec_1_1modeling_1_1model_1_1petrinet_1_1ITransition.htm" target="_top" xlink:title="interface of a petri&#45;net transition ">
<polygon fill="none" stroke="black" points="548,-188.5 548,-216.5 791,-216.5 791,-188.5 548,-188.5"/>
<text text-anchor="start" x="556" y="-205.3" font-family="Helvetica,sans-Serif" font-size="9.00">de.tu_clausthal.in.mec.modeling.model.petrinet.</text>
<text text-anchor="middle" x="669.5" y="-195.3" font-family="Helvetica,sans-Serif" font-size="9.00">ITransition</text>
</a>
</g>
</g>
<!-- Node33&#45;&gt;Node7 -->
<g id="edge4" class="edge"><title>Node33&#45;&gt;Node7</title>
<path fill="none" stroke="midnightblue" d="M428.871,-167.031C465.859,-172.506 524,-181.112 573.748,-188.475"/>
<polygon fill="midnightblue" stroke="midnightblue" points="428.969,-163.508 418.564,-165.506 427.944,-170.432 428.969,-163.508"/>
</g>
<!-- Node31 -->
<g id="node7" class="node"><title>Node31</title>
<g id="a_node7"><a xlink:href="dd/d69/interfacede_1_1tu__clausthal_1_1in_1_1mec_1_1modeling_1_1model_1_1storage_1_1IModelStorage.htm" target="_top" xlink:title="interface for model storage ">
<polygon fill="none" stroke="black" points="548.5,-94.5 548.5,-122.5 790.5,-122.5 790.5,-94.5 548.5,-94.5"/>
<text text-anchor="start" x="556.5" y="-111.3" font-family="Helvetica,sans-Serif" font-size="9.00">de.tu_clausthal.in.mec.modeling.model.storage.</text>
<text text-anchor="middle" x="669.5" y="-101.3" font-family="Helvetica,sans-Serif" font-size="9.00">IModelStorage</text>
</a>
</g>
</g>
<!-- Node33&#45;&gt;Node31 -->
<g id="edge6" class="edge"><title>Node33&#45;&gt;Node31</title>
<path fill="none" stroke="midnightblue" d="M428.595,-157.02C452.556,-153.79 484.315,-148.879 512,-142.5 528.303,-138.743 531.76,-135.519 548,-131.5 561.025,-128.277 574.937,-125.247 588.51,-122.511"/>
<polygon fill="midnightblue" stroke="midnightblue" points="427.969,-153.572 418.509,-158.342 428.879,-160.512 427.969,-153.572"/>
</g>
<!-- Node8 -->
<g id="node6" class="node"><title>Node8</title>
<g id="a_node6"><a xlink:href="db/d15/classde_1_1tu__clausthal_1_1in_1_1mec_1_1modeling_1_1model_1_1petrinet_1_1CTransition.htm" target="_top" xlink:title="transition class ">
<polygon fill="none" stroke="black" points="827,-223.5 827,-251.5 1070,-251.5 1070,-223.5 827,-223.5"/>
<text text-anchor="start" x="835" y="-240.3" font-family="Helvetica,sans-Serif" font-size="9.00">de.tu_clausthal.in.mec.modeling.model.petrinet.</text>
<text text-anchor="middle" x="948.5" y="-230.3" font-family="Helvetica,sans-Serif" font-size="9.00">CTransition</text>
</a>
</g>
</g>
<!-- Node7&#45;&gt;Node8 -->
<g id="edge5" class="edge"><title>Node7&#45;&gt;Node8</title>
<path fill="none" stroke="midnightblue" d="M791.79,-217.825C806.626,-219.7 821.729,-221.608 836.405,-223.463"/>
<polygon fill="midnightblue" stroke="midnightblue" points="791.93,-214.315 781.57,-216.534 791.053,-221.26 791.93,-214.315"/>
</g>
<!-- Node32 -->
<g id="node8" class="node"><title>Node32</title>
<g id="a_node8"><a xlink:href="db/dc2/enumde_1_1tu__clausthal_1_1in_1_1mec_1_1modeling_1_1model_1_1storage_1_1EModelStorage.htm" target="_top" xlink:title="model storage ">
<polygon fill="none" stroke="black" points="827.5,-94.5 827.5,-122.5 1069.5,-122.5 1069.5,-94.5 827.5,-94.5"/>
<text text-anchor="start" x="835.5" y="-111.3" font-family="Helvetica,sans-Serif" font-size="9.00">de.tu_clausthal.in.mec.modeling.model.storage.</text>
<text text-anchor="middle" x="948.5" y="-101.3" font-family="Helvetica,sans-Serif" font-size="9.00">EModelStorage</text>
</a>
</g>
</g>
<!-- Node31&#45;&gt;Node32 -->
<g id="edge7" class="edge"><title>Node31&#45;&gt;Node32</title>
<path fill="none" stroke="midnightblue" d="M801.049,-108.5C809.814,-108.5 818.622,-108.5 827.331,-108.5"/>
<polygon fill="midnightblue" stroke="midnightblue" points="800.788,-105 790.788,-108.5 800.788,-112 800.788,-105"/>
</g>
<!-- Node26 -->
<g id="node9" class="node"><title>Node26</title>
<polygon fill="none" stroke="#bfbfbf" points="363,-78.5 363,-96.5 418,-96.5 418,-78.5 363,-78.5"/>
<text text-anchor="middle" x="390.5" y="-85.3" font-family="Helvetica,sans-Serif" font-size="9.00">Supplier</text>
</g>
<!-- Node26&#45;&gt;Node5 -->
<g id="edge13" class="edge"><title>Node26&#45;&gt;Node5</title>
<path fill="none" stroke="midnightblue" d="M428.607,-88.5069C453.068,-90.2515 485.381,-94.6548 512,-105.5 530.278,-112.947 529.907,-123.614 548,-131.5 556.995,-135.421 566.648,-138.707 576.432,-141.461"/>
<polygon fill="midnightblue" stroke="midnightblue" points="428.497,-84.9943 418.307,-87.8948 428.082,-91.9819 428.497,-84.9943"/>
</g>
<!-- Node26&#45;&gt;Node31 -->
<g id="edge14" class="edge"><title>Node26&#45;&gt;Node31</title>
<path fill="none" stroke="midnightblue" d="M428.318,-90.2913C459.167,-92.63 505.004,-96.105 548.39,-99.3942"/>
<polygon fill="midnightblue" stroke="midnightblue" points="428.296,-86.7796 418.06,-89.5136 427.767,-93.7596 428.296,-86.7796"/>
</g>
<!-- Node27 -->
<g id="node10" class="node"><title>Node27</title>
<g id="a_node10"><a xlink:href="d3/d76/interfacede_1_1tu__clausthal_1_1in_1_1mec_1_1modeling_1_1model_1_1graph_1_1IEdge.htm" target="_top" xlink:title="interface of an edge ">
<polygon fill="none" stroke="black" points="553,-47.5 553,-75.5 786,-75.5 786,-47.5 553,-47.5"/>
<text text-anchor="start" x="561" y="-64.3" font-family="Helvetica,sans-Serif" font-size="9.00">de.tu_clausthal.in.mec.modeling.model.graph.</text>
<text text-anchor="middle" x="669.5" y="-54.3" font-family="Helvetica,sans-Serif" font-size="9.00">IEdge</text>
</a>
</g>
</g>
<!-- Node26&#45;&gt;Node27 -->
<g id="edge8" class="edge"><title>Node26&#45;&gt;Node27</title>
<path fill="none" stroke="midnightblue" d="M428.243,-84.0512C460.172,-81.0542 508.197,-76.5465 552.937,-72.347"/>
<polygon fill="midnightblue" stroke="midnightblue" points="427.689,-80.5877 418.06,-85.007 428.343,-87.5571 427.689,-80.5877"/>
</g>
<!-- Node28 -->
<g id="node11" class="node"><title>Node28</title>
<g id="a_node11"><a xlink:href="d0/d34/classde_1_1tu__clausthal_1_1in_1_1mec_1_1modeling_1_1model_1_1graph_1_1IBaseEdge.htm" target="_top" xlink:title="abstract class of an edge ">
<polygon fill="none" stroke="black" points="832,-47.5 832,-75.5 1065,-75.5 1065,-47.5 832,-47.5"/>
<text text-anchor="start" x="840" y="-64.3" font-family="Helvetica,sans-Serif" font-size="9.00">de.tu_clausthal.in.mec.modeling.model.graph.</text>
<text text-anchor="middle" x="948.5" y="-54.3" font-family="Helvetica,sans-Serif" font-size="9.00">IBaseEdge</text>
</a>
</g>
</g>
<!-- Node27&#45;&gt;Node28 -->
<g id="edge9" class="edge"><title>Node27&#45;&gt;Node28</title>
<path fill="none" stroke="midnightblue" d="M796.593,-61.5C808.272,-61.5 820.07,-61.5 831.651,-61.5"/>
<polygon fill="midnightblue" stroke="midnightblue" points="796.368,-58.0001 786.368,-61.5 796.368,-65.0001 796.368,-58.0001"/>
</g>
<!-- Node30 -->
<g id="node13" class="node"><title>Node30</title>
<g id="a_node13"><a xlink:href="d6/d27/interfacede_1_1tu__clausthal_1_1in_1_1mec_1_1modeling_1_1model_1_1petrinet_1_1IPetrinetEdge.htm" target="_top" xlink:title="connection / edge interface between transition and place ">
<polygon fill="none" stroke="black" points="827,-0.5 827,-28.5 1070,-28.5 1070,-0.5 827,-0.5"/>
<text text-anchor="start" x="835" y="-17.3" font-family="Helvetica,sans-Serif" font-size="9.00">de.tu_clausthal.in.mec.modeling.model.petrinet.</text>
<text text-anchor="middle" x="948.5" y="-7.3" font-family="Helvetica,sans-Serif" font-size="9.00">IPetrinetEdge</text>
</a>
</g>
</g>
<!-- Node27&#45;&gt;Node30 -->
<g id="edge11" class="edge"><title>Node27&#45;&gt;Node30</title>
<path fill="none" stroke="midnightblue" d="M763.286,-45.7566C796.104,-40.1881 832.78,-33.9651 864.714,-28.5467"/>
<polygon fill="midnightblue" stroke="midnightblue" points="762.507,-42.3385 753.234,-47.4621 763.679,-49.2399 762.507,-42.3385"/>
</g>
<!-- Node29 -->
<g id="node12" class="node"><title>Node29</title>
<g id="a_node12"><a xlink:href="d7/db3/classde_1_1tu__clausthal_1_1in_1_1mec_1_1modeling_1_1model_1_1petrinet_1_1CPetrinetEdge.htm" target="_top" xlink:title="connection class ">
<polygon fill="none" stroke="black" points="1106,-23.5 1106,-51.5 1349,-51.5 1349,-23.5 1106,-23.5"/>
<text text-anchor="start" x="1114" y="-40.3" font-family="Helvetica,sans-Serif" font-size="9.00">de.tu_clausthal.in.mec.modeling.model.petrinet.</text>
<text text-anchor="middle" x="1227.5" y="-30.3" font-family="Helvetica,sans-Serif" font-size="9.00">CPetrinetEdge</text>
</a>
</g>
</g>
<!-- Node28&#45;&gt;Node29 -->
<g id="edge10" class="edge"><title>Node28&#45;&gt;Node29</title>
<path fill="none" stroke="midnightblue" d="M1075.42,-50.5899C1085.51,-49.7156 1095.69,-48.8335 1105.75,-47.9624"/>
<polygon fill="midnightblue" stroke="midnightblue" points="1075.03,-47.1107 1065.37,-51.4609 1075.63,-54.0846 1075.03,-47.1107"/>
</g>
<!-- Node30&#45;&gt;Node29 -->
<g id="edge12" class="edge"><title>Node30&#45;&gt;Node29</title>
<path fill="none" stroke="midnightblue" d="M1080.19,-25.3514C1088.73,-26.0604 1097.31,-26.7727 1105.79,-27.4775"/>
<polygon fill="midnightblue" stroke="midnightblue" points="1080.45,-21.8608 1070.19,-24.5212 1079.87,-28.8368 1080.45,-21.8608"/>
</g>
<!-- Node0 -->
<g id="node14" class="node"><title>Node0</title>
<g id="a_node14"><a xlink:href="d4/db2/interfacede_1_1tu__clausthal_1_1in_1_1mec_1_1modeling_1_1model_1_1graph_1_1INode.htm" target="_top" xlink:title="node interface ">
<polygon fill="none" stroke="black" points="0,-211.5 0,-239.5 233,-239.5 233,-211.5 0,-211.5"/>
<text text-anchor="start" x="8" y="-228.3" font-family="Helvetica,sans-Serif" font-size="9.00">de.tu_clausthal.in.mec.modeling.model.graph.</text>
<text text-anchor="middle" x="116.5" y="-218.3" font-family="Helvetica,sans-Serif" font-size="9.00">INode</text>
</a>
</g>
</g>
<!-- Node1 -->
<g id="node15" class="node"><title>Node1</title>
<g id="a_node15"><a xlink:href="d5/d3e/classde_1_1tu__clausthal_1_1in_1_1mec_1_1modeling_1_1model_1_1graph_1_1IBaseNode.htm" target="_top" xlink:title="abstract class of an node ">
<polygon fill="none" stroke="black" points="553,-235.5 553,-263.5 786,-263.5 786,-235.5 553,-235.5"/>
<text text-anchor="start" x="561" y="-252.3" font-family="Helvetica,sans-Serif" font-size="9.00">de.tu_clausthal.in.mec.modeling.model.graph.</text>
<text text-anchor="middle" x="669.5" y="-242.3" font-family="Helvetica,sans-Serif" font-size="9.00">IBaseNode</text>
</a>
</g>
</g>
<!-- Node0&#45;&gt;Node1 -->
<g id="edge15" class="edge"><title>Node0&#45;&gt;Node1</title>
<path fill="none" stroke="midnightblue" d="M243.047,-230.968C336.111,-235.022 462.007,-240.506 552.671,-244.455"/>
<polygon fill="midnightblue" stroke="midnightblue" points="243.151,-227.47 233.008,-230.531 242.846,-234.463 243.151,-227.47"/>
</g>
<!-- Node4 -->
<g id="node16" class="node"><title>Node4</title>
<g id="a_node16"><a xlink:href="dd/d9f/interfacede_1_1tu__clausthal_1_1in_1_1mec_1_1modeling_1_1model_1_1petrinet_1_1IPetrinetNode.htm" target="_top" xlink:title="petrinet node ">
<polygon fill="none" stroke="black" points="269,-189.5 269,-217.5 512,-217.5 512,-189.5 269,-189.5"/>
<text text-anchor="start" x="277" y="-206.3" font-family="Helvetica,sans-Serif" font-size="9.00">de.tu_clausthal.in.mec.modeling.model.petrinet.</text>
<text text-anchor="middle" x="390.5" y="-196.3" font-family="Helvetica,sans-Serif" font-size="9.00">IPetrinetNode</text>
</a>
</g>
</g>
<!-- Node0&#45;&gt;Node4 -->
<g id="edge18" class="edge"><title>Node0&#45;&gt;Node4</title>
<path fill="none" stroke="midnightblue" d="M243.446,-215.313C251.836,-214.635 260.276,-213.952 268.64,-213.275"/>
<polygon fill="midnightblue" stroke="midnightblue" points="242.932,-211.843 233.247,-216.138 243.497,-218.82 242.932,-211.843"/>
</g>
<!-- Node1&#45;&gt;Node6 -->
<g id="edge16" class="edge"><title>Node1&#45;&gt;Node6</title>
<path fill="none" stroke="midnightblue" d="M760.289,-233.254C770.702,-230.887 781.123,-228.295 791,-225.5 814.141,-218.952 873.075,-196.508 911.653,-181.537"/>
<polygon fill="midnightblue" stroke="midnightblue" points="759.337,-229.88 750.327,-235.453 760.847,-236.715 759.337,-229.88"/>
</g>
<!-- Node1&#45;&gt;Node8 -->
<g id="edge17" class="edge"><title>Node1&#45;&gt;Node8</title>
<path fill="none" stroke="midnightblue" d="M796.421,-244.045C806.512,-243.608 816.693,-243.167 826.747,-242.731"/>
<polygon fill="midnightblue" stroke="midnightblue" points="796.207,-240.551 786.368,-244.48 796.51,-247.544 796.207,-240.551"/>
</g>
<!-- Node4&#45;&gt;Node5 -->
<g id="edge19" class="edge"><title>Node4&#45;&gt;Node5</title>
<path fill="none" stroke="midnightblue" d="M482.281,-187.769C516.228,-181.887 554.532,-175.249 587.535,-169.53"/>
<polygon fill="midnightblue" stroke="midnightblue" points="481.62,-184.331 472.365,-189.487 482.815,-191.228 481.62,-184.331"/>
</g>
<!-- Node4&#45;&gt;Node7 -->
<g id="edge20" class="edge"><title>Node4&#45;&gt;Node7</title>
<path fill="none" stroke="midnightblue" d="M522.467,-203.027C530.914,-202.997 539.398,-202.966 547.794,-202.936"/>
<polygon fill="midnightblue" stroke="midnightblue" points="522.178,-199.528 512.19,-203.064 522.203,-206.528 522.178,-199.528"/>
</g>
</g>
</svg>
