<?xml version="1.0" encoding="UTF-8" standalone="no"?>
<!DOCTYPE svg PUBLIC "-//W3C//DTD SVG 1.1//EN"
 "http://www.w3.org/Graphics/SVG/1.1/DTD/svg11.dtd">
<!-- Generated by graphviz version 2.38.0 (20140413.2041)
 -->
<!-- Title: Grafische Darstellung der Klassenhierarchie Pages: 1 -->
<svg width="870pt" height="37pt"
 viewBox="0.00 0.00 870.00 37.00" xmlns="http://www.w3.org/2000/svg" xmlns:xlink="http://www.w3.org/1999/xlink">
<g id="graph0" class="graph" transform="scale(1 1) rotate(0) translate(4 33)">
<title>Grafische Darstellung der Klassenhierarchie</title>
<!-- Node39 -->
<g id="node1" class="node"><title>Node39</title>
<polygon fill="none" stroke="#bfbfbf" points="0,-5.5 0,-23.5 65,-23.5 65,-5.5 0,-5.5"/>
<text text-anchor="middle" x="32.5" y="-12.3" font-family="Helvetica,sans-Serif" font-size="9.00">BiFunction</text>
</g>
<!-- Node0 -->
<g id="node2" class="node"><title>Node0</title>
<g id="a_node2"><a xlink:href="dc/dce/interfacede_1_1tu__clausthal_1_1in_1_1mec_1_1modeling_1_1model_1_1IChecker.htm" target="_top" xlink:title="model checker interface ">
<polygon fill="none" stroke="black" points="101,-0.5 101,-28.5 304,-28.5 304,-0.5 101,-0.5"/>
<text text-anchor="start" x="109" y="-17.3" font-family="Helvetica,sans-Serif" font-size="9.00">de.tu_clausthal.in.mec.modeling.model.</text>
<text text-anchor="middle" x="202.5" y="-7.3" font-family="Helvetica,sans-Serif" font-size="9.00">IChecker&lt; T extends IModel&lt;?&gt;</text>
</a>
</g>
</g>
<!-- Node39&#45;&gt;Node0 -->
<g id="edge1" class="edge"><title>Node39&#45;&gt;Node0</title>
<path fill="none" stroke="midnightblue" d="M75.2182,-14.5C83.2488,-14.5 91.9768,-14.5 100.968,-14.5"/>
<polygon fill="midnightblue" stroke="midnightblue" points="75.0995,-11.0001 65.0995,-14.5 75.0995,-18.0001 75.0995,-11.0001"/>
</g>
<!-- Node1 -->
<g id="node3" class="node"><title>Node1</title>
<g id="a_node3"><a xlink:href="de/dd9/interfacede_1_1tu__clausthal_1_1in_1_1mec_1_1modeling_1_1model_1_1petrinet_1_1IPetrinetChecker.htm" target="_top" xlink:title="petrinet model checker ">
<polygon fill="none" stroke="black" points="340,-0.5 340,-28.5 583,-28.5 583,-0.5 340,-0.5"/>
<text text-anchor="start" x="348" y="-17.3" font-family="Helvetica,sans-Serif" font-size="9.00">de.tu_clausthal.in.mec.modeling.model.petrinet.</text>
<text text-anchor="middle" x="461.5" y="-7.3" font-family="Helvetica,sans-Serif" font-size="9.00">IPetrinetChecker</text>
</a>
</g>
</g>
<!-- Node0&#45;&gt;Node1 -->
<g id="edge2" class="edge"><title>Node0&#45;&gt;Node1</title>
<path fill="none" stroke="midnightblue" d="M314.528,-14.5C322.932,-14.5 331.439,-14.5 339.9,-14.5"/>
<polygon fill="midnightblue" stroke="midnightblue" points="314.336,-11.0001 304.336,-14.5 314.336,-18.0001 314.336,-11.0001"/>
</g>
<!-- Node2 -->
<g id="node4" class="node"><title>Node2</title>
<g id="a_node4"><a xlink:href="d1/d20/classde_1_1tu__clausthal_1_1in_1_1mec_1_1modeling_1_1model_1_1petrinet_1_1CPetrinetChecker.htm" target="_top" xlink:title="petrinet model checker ">
<polygon fill="none" stroke="black" points="619,-0.5 619,-28.5 862,-28.5 862,-0.5 619,-0.5"/>
<text text-anchor="start" x="627" y="-17.3" font-family="Helvetica,sans-Serif" font-size="9.00">de.tu_clausthal.in.mec.modeling.model.petrinet.</text>
<text text-anchor="middle" x="740.5" y="-7.3" font-family="Helvetica,sans-Serif" font-size="9.00">CPetrinetChecker</text>
</a>
</g>
</g>
<!-- Node1&#45;&gt;Node2 -->
<g id="edge3" class="edge"><title>Node1&#45;&gt;Node2</title>
<path fill="none" stroke="midnightblue" d="M593.467,-14.5C601.914,-14.5 610.398,-14.5 618.794,-14.5"/>
<polygon fill="midnightblue" stroke="midnightblue" points="593.19,-11.0001 583.19,-14.5 593.19,-18.0001 593.19,-11.0001"/>
</g>
</g>
</svg>
