<?xml version="1.0" encoding="UTF-8" standalone="no"?>
<!DOCTYPE svg PUBLIC "-//W3C//DTD SVG 1.1//EN"
 "http://www.w3.org/Graphics/SVG/1.1/DTD/svg11.dtd">
<!-- Generated by graphviz version 2.38.0 (20140413.2041)
 -->
<!-- Title: Grafische Darstellung der Klassenhierarchie Pages: 1 -->
<svg width="858pt" height="37pt"
 viewBox="0.00 0.00 858.00 37.00" xmlns="http://www.w3.org/2000/svg" xmlns:xlink="http://www.w3.org/1999/xlink">
<g id="graph0" class="graph" transform="scale(1 1) rotate(0) translate(4 33)">
<title>Grafische Darstellung der Klassenhierarchie</title>
<!-- Node35 -->
<g id="node1" class="node"><title>Node35</title>
<polygon fill="none" stroke="#bfbfbf" points="0,-5.5 0,-23.5 53,-23.5 53,-5.5 0,-5.5"/>
<text text-anchor="middle" x="26.5" y="-12.3" font-family="Helvetica,sans-Serif" font-size="9.00">Callable</text>
</g>
<!-- Node0 -->
<g id="node2" class="node"><title>Node0</title>
<g id="a_node2"><a xlink:href="d3/d97/interfacede_1_1tu__clausthal_1_1in_1_1mec_1_1modeling_1_1model_1_1IModel.htm" target="_top" xlink:title="interface of a model ">
<polygon fill="none" stroke="black" points="89,-0.5 89,-28.5 292,-28.5 292,-0.5 89,-0.5"/>
<text text-anchor="start" x="97" y="-17.3" font-family="Helvetica,sans-Serif" font-size="9.00">de.tu_clausthal.in.mec.modeling.model.</text>
<text text-anchor="middle" x="190.5" y="-7.3" font-family="Helvetica,sans-Serif" font-size="9.00">IModel&lt; T extends IModel&lt;?&gt;</text>
</a>
</g>
</g>
<!-- Node35&#45;&gt;Node0 -->
<g id="edge1" class="edge"><title>Node35&#45;&gt;Node0</title>
<path fill="none" stroke="midnightblue" d="M63.312,-14.5C71.162,-14.5 79.8446,-14.5 88.8734,-14.5"/>
<polygon fill="midnightblue" stroke="midnightblue" points="63.1694,-11.0001 53.1694,-14.5 63.1693,-18.0001 63.1694,-11.0001"/>
</g>
<!-- Node1 -->
<g id="node3" class="node"><title>Node1</title>
<g id="a_node3"><a xlink:href="d1/d3e/interfacede_1_1tu__clausthal_1_1in_1_1mec_1_1modeling_1_1model_1_1petrinet_1_1IPetrinet.htm" target="_top" xlink:title="interface of a petrinet ">
<polygon fill="none" stroke="black" points="328,-0.5 328,-28.5 571,-28.5 571,-0.5 328,-0.5"/>
<text text-anchor="start" x="336" y="-17.3" font-family="Helvetica,sans-Serif" font-size="9.00">de.tu_clausthal.in.mec.modeling.model.petrinet.</text>
<text text-anchor="middle" x="449.5" y="-7.3" font-family="Helvetica,sans-Serif" font-size="9.00">IPetrinet</text>
</a>
</g>
</g>
<!-- Node0&#45;&gt;Node1 -->
<g id="edge2" class="edge"><title>Node0&#45;&gt;Node1</title>
<path fill="none" stroke="midnightblue" d="M302.528,-14.5C310.932,-14.5 319.439,-14.5 327.9,-14.5"/>
<polygon fill="midnightblue" stroke="midnightblue" points="302.336,-11.0001 292.336,-14.5 302.336,-18.0001 302.336,-11.0001"/>
</g>
<!-- Node2 -->
<g id="node4" class="node"><title>Node2</title>
<g id="a_node4"><a xlink:href="d6/db3/classde_1_1tu__clausthal_1_1in_1_1mec_1_1modeling_1_1model_1_1petrinet_1_1CPetrinet.htm" target="_top" xlink:title="petrinet model ">
<polygon fill="none" stroke="black" points="607,-0.5 607,-28.5 850,-28.5 850,-0.5 607,-0.5"/>
<text text-anchor="start" x="615" y="-17.3" font-family="Helvetica,sans-Serif" font-size="9.00">de.tu_clausthal.in.mec.modeling.model.petrinet.</text>
<text text-anchor="middle" x="728.5" y="-7.3" font-family="Helvetica,sans-Serif" font-size="9.00">CPetrinet</text>
</a>
</g>
</g>
<!-- Node1&#45;&gt;Node2 -->
<g id="edge3" class="edge"><title>Node1&#45;&gt;Node2</title>
<path fill="none" stroke="midnightblue" d="M581.467,-14.5C589.914,-14.5 598.398,-14.5 606.794,-14.5"/>
<polygon fill="midnightblue" stroke="midnightblue" points="581.19,-11.0001 571.19,-14.5 581.19,-18.0001 581.19,-11.0001"/>
</g>
</g>
</svg>
