<?xml version="1.0" encoding="UTF-8" standalone="no"?>
<!DOCTYPE svg PUBLIC "-//W3C//DTD SVG 1.1//EN"
 "http://www.w3.org/Graphics/SVG/1.1/DTD/svg11.dtd">
<!-- Generated by graphviz version 2.38.0 (20140413.2041)
 -->
<!-- Title: de.tu_clausthal.in.mec.modeling.model.petrinet.ITransition Pages: 1 -->
<svg width="251pt" height="285pt"
 viewBox="0.00 0.00 251.00 285.00" xmlns="http://www.w3.org/2000/svg" xmlns:xlink="http://www.w3.org/1999/xlink">
<g id="graph0" class="graph" transform="scale(1 1) rotate(0) translate(4 281)">
<title>de.tu_clausthal.in.mec.modeling.model.petrinet.ITransition</title>
<!-- Node4 -->
<g id="node1" class="node"><title>Node4</title>
<polygon fill="#bfbfbf" stroke="black" points="0,-0.5 0,-64.5 243,-64.5 243,-0.5 0,-0.5"/>
<text text-anchor="start" x="8" y="-53.3" font-family="Helvetica,sans-Serif" font-size="9.00">de.tu_clausthal.in.mec.modeling.model.petrinet.</text>
<text text-anchor="middle" x="121.5" y="-43.3" font-family="Helvetica,sans-Serif" font-size="9.00">ITransition</text>
<polyline fill="none" stroke="black" points="0,-36.5 243,-36.5 "/>
<text text-anchor="middle" x="121.5" y="-25.3" font-family="Helvetica,sans-Serif" font-size="9.00"> </text>
<polyline fill="none" stroke="black" points="0,-18.5 243,-18.5 "/>
<text text-anchor="middle" x="121.5" y="-7.3" font-family="Helvetica,sans-Serif" font-size="9.00"> </text>
</g>
<!-- Node5 -->
<g id="node2" class="node"><title>Node5</title>
<g id="a_node2"><a xlink:href="../../dd/d9f/interfacede_1_1tu__clausthal_1_1in_1_1mec_1_1modeling_1_1model_1_1petrinet_1_1IPetrinetNode.htm" target="_top" xlink:title="petrinet node ">
<polygon fill="none" stroke="black" points="0,-101.5 0,-165.5 243,-165.5 243,-101.5 0,-101.5"/>
<text text-anchor="start" x="8" y="-154.3" font-family="Helvetica,sans-Serif" font-size="9.00">de.tu_clausthal.in.mec.modeling.model.petrinet.</text>
<text text-anchor="middle" x="121.5" y="-144.3" font-family="Helvetica,sans-Serif" font-size="9.00">IPetrinetNode</text>
<polyline fill="none" stroke="black" points="0,-137.5 243,-137.5 "/>
<text text-anchor="middle" x="121.5" y="-126.3" font-family="Helvetica,sans-Serif" font-size="9.00"> </text>
<polyline fill="none" stroke="black" points="0,-119.5 243,-119.5 "/>
<text text-anchor="middle" x="121.5" y="-108.3" font-family="Helvetica,sans-Serif" font-size="9.00"> </text>
</a>
</g>
</g>
<!-- Node5&#45;&gt;Node4 -->
<g id="edge1" class="edge"><title>Node5&#45;&gt;Node4</title>
<path fill="none" stroke="midnightblue" d="M121.5,-91.2823C121.5,-82.4203 121.5,-73.1938 121.5,-64.7828"/>
<polygon fill="none" stroke="midnightblue" points="118,-91.4474 121.5,-101.447 125,-91.4474 118,-91.4474"/>
</g>
<!-- Node6 -->
<g id="node3" class="node"><title>Node6</title>
<g id="a_node3"><a xlink:href="../../d4/db2/interfacede_1_1tu__clausthal_1_1in_1_1mec_1_1modeling_1_1model_1_1graph_1_1INode.htm" target="_top" xlink:title="node interface ">
<polygon fill="none" stroke="black" points="5,-202.5 5,-276.5 238,-276.5 238,-202.5 5,-202.5"/>
<text text-anchor="start" x="13" y="-265.3" font-family="Helvetica,sans-Serif" font-size="9.00">de.tu_clausthal.in.mec.modeling.model.graph.</text>
<text text-anchor="middle" x="121.5" y="-255.3" font-family="Helvetica,sans-Serif" font-size="9.00">INode</text>
<polyline fill="none" stroke="black" points="5,-248.5 238,-248.5 "/>
<text text-anchor="middle" x="121.5" y="-237.3" font-family="Helvetica,sans-Serif" font-size="9.00"> </text>
<polyline fill="none" stroke="black" points="5,-230.5 238,-230.5 "/>
<text text-anchor="start" x="13" y="-219.3" font-family="Helvetica,sans-Serif" font-size="9.00">+ id()</text>
<text text-anchor="start" x="13" y="-209.3" font-family="Helvetica,sans-Serif" font-size="9.00">+ raw()</text>
</a>
</g>
</g>
<!-- Node6&#45;&gt;Node5 -->
<g id="edge2" class="edge"><title>Node6&#45;&gt;Node5</title>
<path fill="none" stroke="midnightblue" d="M121.5,-192.38C121.5,-183.347 121.5,-174.074 121.5,-165.67"/>
<polygon fill="none" stroke="midnightblue" points="118,-192.418 121.5,-202.418 125,-192.418 118,-192.418"/>
</g>
</g>
</svg>
