<?xml version="1.0" encoding="UTF-8" standalone="no"?>
<!-- Created with Inkscape (http://www.inkscape.org/) -->

<svg
   xmlns:dc="http://purl.org/dc/elements/1.1/"
   xmlns:cc="http://creativecommons.org/ns#"
   xmlns:rdf="http://www.w3.org/1999/02/22-rdf-syntax-ns#"
   xmlns:svg="http://www.w3.org/2000/svg"
   xmlns="http://www.w3.org/2000/svg"
   xmlns:sodipodi="http://sodipodi.sourceforge.net/DTD/sodipodi-0.dtd"
   xmlns:inkscape="http://www.inkscape.org/namespaces/inkscape"
   width="100"
   height="100"
   viewBox="0 0 26.458333 26.458334"
   version="1.1"
   id="svg3719"
   inkscape:version="0.92.2 2405546, 2018-03-11"
   sodipodi:docname="circle.svg">
  <defs
     id="defs3713">
    <inkscape:path-effect
       effect="skeletal"
       id="path-effect3822"
       is_visible="true"
       pattern="M 0,5 C 0,2.24 2.24,0 5,0 7.76,0 10,2.24 10,5 10,7.76 7.76,10 5,10 2.24,10 0,7.76 0,5 Z"
       copytype="single_stretched"
       prop_scale="0.26458333"
       scale_y_rel="false"
       spacing="0"
       normal_offset="0"
       tang_offset="0"
       prop_units="false"
       vertical_pattern="false"
       fuse_tolerance="0" />
    <inkscape:path-effect
       effect="skeletal"
       id="path-effect3798"
       is_visible="true"
       pattern="M 0,5 C 0,2.24 2.24,0 5,0 7.76,0 10,2.24 10,5 10,7.76 7.76,10 5,10 2.24,10 0,7.76 0,5 Z"
       copytype="single_stretched"
       prop_scale="0.26458333"
       scale_y_rel="false"
       spacing="0"
       normal_offset="0"
       tang_offset="0"
       prop_units="false"
       vertical_pattern="false"
       fuse_tolerance="0" />
  </defs>
  <sodipodi:namedview
     id="base"
     pagecolor="#ffffff"
     bordercolor="#666666"
     borderopacity="1.0"
     inkscape:pageopacity="0.0"
     inkscape:pageshadow="2"
     inkscape:zoom="1.4"
     inkscape:cx="87.93697"
     inkscape:cy="11.655019"
     inkscape:document-units="mm"
     inkscape:current-layer="layer1"
     showgrid="false"
     units="px"
     inkscape:window-width="1920"
     inkscape:window-height="1023"
     inkscape:window-x="0"
     inkscape:window-y="1052"
     inkscape:window-maximized="1" />
  <metadata
     id="metadata3716">
    <rdf:RDF>
      <cc:Work
         rdf:about="">
        <dc:format>image/svg+xml</dc:format>
        <dc:type
           rdf:resource="http://purl.org/dc/dcmitype/StillImage" />
        <dc:title></dc:title>
      </cc:Work>
    </rdf:RDF>
  </metadata>
  <g
     inkscape:label="Layer 1"
     inkscape:groupmode="layer"
     id="layer1"
     transform="translate(0,-270.54165)">
    <path
       style="fill:#000000;stroke-width:0.33473945"
       id="path3926"
       d="m 18.952696,278.07305 c -0.853487,-0.93384 -1.790552,-1.84132 -2.937113,-2.40823 -0.274057,-0.13549 -0.564627,-0.23468 -0.846933,-0.35202 -1.635735,-0.57312 -3.347505,-0.60218 -4.981531,-0.003 -0.3715772,0.13627 -0.7252512,0.3171 -1.0878709,0.47566 -0.3614175,0.21579 -1.4785763,0.79474 -1.0842653,0.64738 0.6410176,-0.23954 1.1484595,-0.89143 1.8318596,-0.92676 0.4366176,-0.0225 -0.6646506,0.5699 -0.9705909,0.88223 -0.9414412,0.96116 -1.5887714,2.0584 -2.2451098,3.21972 -0.7242012,1.46206 -1.2359699,3.02962 -1.2824011,4.67242 -0.027581,0.97686 0.06465,1.30818 0.2077008,2.26465 0.4047869,1.79612 1.2591475,3.45122 2.6436091,4.68784 0.286963,0.25632 0.6039477,0.47692 0.9059284,0.71537 1.7995591,1.1816 3.7207881,1.52354 5.8372701,1.17377 0.45519,-0.0753 0.900552,-0.20116 1.350821,-0.30173 -0.641612,0.79673 3.387382,-1.69464 2.659107,-1.07518 -0.480406,0.40862 -1.032887,0.83585 -1.659291,0.90919 -0.464313,0.0544 0.766861,-0.538 1.118613,-0.8459 0.949134,-0.83079 1.086024,-1.12822 1.830632,-2.13376 1.069209,-1.71609 1.646867,-3.63842 1.558547,-5.67046 -0.06338,-1.45845 -0.248059,-1.82142 -0.632439,-3.21995 -0.801984,-2.04543 -1.955478,-3.71523 -3.981715,-4.70077 -1.180076,-0.57397 -1.708013,-0.57469 -2.981938,-0.79792 0,0 2.734701,-1.90976 2.734701,-1.90976 v 0 c 1.317015,0.26732 1.837361,0.27914 3.051533,0.90335 2.069582,1.06398 3.256552,2.80547 4.092214,4.91859 0.408101,1.44131 0.592422,1.79874 0.687904,3.30129 0.131968,2.0769 -0.395083,4.05396 -1.446417,5.8398 -0.711119,1.02018 -0.87373,1.36995 -1.791892,2.22218 -0.346008,0.32118 -0.707121,0.63246 -1.106962,0.88344 -2.224057,1.39612 -4.302786,2.7154 -6.811631,3.40889 -0.461023,0.0921 -0.917403,0.21156 -1.383069,0.27618 -2.141531,0.29723 -4.2183254,-0.14025 -6.0034869,-1.37276 -0.3109882,-0.24925 -0.6375379,-0.48024 -0.9329773,-0.74773 -1.4290834,-1.29393 -2.3157307,-3.00946 -2.7477059,-4.87291 -0.1553234,-0.99047 -0.2505898,-1.32654 -0.2361163,-2.33956 0.024038,-1.68536 0.5135778,-3.29942 1.2368555,-4.81016 0.6484182,-1.18478 1.2808576,-2.3165 2.2048523,-3.31616 1.6546231,-1.79013 3.915699,-2.80083 6.0112046,-3.98727 0.375081,-0.14954 0.741255,-0.32373 1.125255,-0.44861 1.700118,-0.55287 3.473591,-0.4427 5.138525,0.17247 0.292162,0.12874 0.592928,0.23949 0.876487,0.38622 1.175382,0.60826 2.129158,1.54728 3.076609,2.45145 0,0 -3.028773,1.82842 -3.028773,1.82842 z"
       inkscape:connector-curvature="0" />
  </g>
</svg>
