<?xml version="1.0" encoding="UTF-8" standalone="no"?>
<!DOCTYPE svg PUBLIC "-//W3C//DTD SVG 1.1//EN"
 "http://www.w3.org/Graphics/SVG/1.1/DTD/svg11.dtd">
<!-- Generated by graphviz version 2.38.0 (20140413.2041)
 -->
<!-- Title: de.tu_clausthal.in.mec.modeling.model.petrinet.IPetrinet Pages: 1 -->
<svg width="251pt" height="244pt"
 viewBox="0.00 0.00 251.00 244.00" xmlns="http://www.w3.org/2000/svg" xmlns:xlink="http://www.w3.org/1999/xlink">
<g id="graph0" class="graph" transform="scale(1 1) rotate(0) translate(4 240)">
<title>de.tu_clausthal.in.mec.modeling.model.petrinet.IPetrinet</title>
<!-- Node3 -->
<g id="node1" class="node"><title>Node3</title>
<polygon fill="#bfbfbf" stroke="black" points="0,-0.5 0,-84.5 243,-84.5 243,-0.5 0,-0.5"/>
<text text-anchor="start" x="8" y="-73.3" font-family="Helvetica,sans-Serif" font-size="9.00">de.tu_clausthal.in.mec.modeling.model.petrinet.</text>
<text text-anchor="middle" x="121.5" y="-63.3" font-family="Helvetica,sans-Serif" font-size="9.00">IPetrinet</text>
<polyline fill="none" stroke="black" points="0,-56.5 243,-56.5 "/>
<text text-anchor="middle" x="121.5" y="-45.3" font-family="Helvetica,sans-Serif" font-size="9.00"> </text>
<polyline fill="none" stroke="black" points="0,-38.5 243,-38.5 "/>
<text text-anchor="start" x="8" y="-27.3" font-family="Helvetica,sans-Serif" font-size="9.00">+ addPlace()</text>
<text text-anchor="start" x="8" y="-17.3" font-family="Helvetica,sans-Serif" font-size="9.00">+ addTransition()</text>
<text text-anchor="start" x="8" y="-7.3" font-family="Helvetica,sans-Serif" font-size="9.00">+ connect()</text>
</g>
<!-- Node4 -->
<g id="node2" class="node"><title>Node4</title>
<g id="a_node2"><a xlink:href="../../d3/d97/interfacede_1_1tu__clausthal_1_1in_1_1mec_1_1modeling_1_1model_1_1IModel.htm" target="_top" xlink:title="interface of a model ">
<polygon fill="none" stroke="black" points="59,-121.5 59,-235.5 184,-235.5 184,-121.5 59,-121.5"/>
<text text-anchor="start" x="67" y="-224.3" font-family="Helvetica,sans-Serif" font-size="9.00">de::tu_clausthal::in</text>
<text text-anchor="start" x="67" y="-214.3" font-family="Helvetica,sans-Serif" font-size="9.00">::mec::modeling::model</text>
<text text-anchor="middle" x="121.5" y="-204.3" font-family="Helvetica,sans-Serif" font-size="9.00">::IModel&lt; IPetrinet &gt;</text>
<polyline fill="none" stroke="black" points="59,-197.5 184,-197.5 "/>
<text text-anchor="middle" x="121.5" y="-186.3" font-family="Helvetica,sans-Serif" font-size="9.00"> </text>
<polyline fill="none" stroke="black" points="59,-179.5 184,-179.5 "/>
<text text-anchor="start" x="67" y="-168.3" font-family="Helvetica,sans-Serif" font-size="9.00">+ description()</text>
<text text-anchor="start" x="67" y="-158.3" font-family="Helvetica,sans-Serif" font-size="9.00">+ id()</text>
<text text-anchor="start" x="67" y="-148.3" font-family="Helvetica,sans-Serif" font-size="9.00">+ raw()</text>
<text text-anchor="start" x="67" y="-138.3" font-family="Helvetica,sans-Serif" font-size="9.00">+ serialize()</text>
<text text-anchor="start" x="67" y="-128.3" font-family="Helvetica,sans-Serif" font-size="9.00">+ terminated()</text>
</a>
</g>
</g>
<!-- Node4&#45;&gt;Node3 -->
<g id="edge1" class="edge"><title>Node4&#45;&gt;Node3</title>
<path fill="none" stroke="midnightblue" d="M121.5,-111.251C121.5,-102.18 121.5,-93.0914 121.5,-84.6493"/>
<polygon fill="none" stroke="midnightblue" points="118,-111.448 121.5,-121.448 125,-111.448 118,-111.448"/>
</g>
</g>
</svg>
