<?xml version="1.0" encoding="UTF-8" standalone="no"?>
<!DOCTYPE svg PUBLIC "-//W3C//DTD SVG 1.1//EN"
 "http://www.w3.org/Graphics/SVG/1.1/DTD/svg11.dtd">
<!-- Generated by graphviz version 2.38.0 (20140413.2041)
 -->
<!-- Title: de.tu_clausthal.in.mec.modeling.model.petrinet.CPetrinetEdge Pages: 1 -->
<svg width="502pt" height="355pt"
 viewBox="0.00 0.00 502.00 355.00" xmlns="http://www.w3.org/2000/svg" xmlns:xlink="http://www.w3.org/1999/xlink">
<g id="graph0" class="graph" transform="scale(1 1) rotate(0) translate(4 351)">
<title>de.tu_clausthal.in.mec.modeling.model.petrinet.CPetrinetEdge</title>
<!-- Node4 -->
<g id="node1" class="node"><title>Node4</title>
<polygon fill="#bfbfbf" stroke="black" points="123,-0.5 123,-64.5 366,-64.5 366,-0.5 123,-0.5"/>
<text text-anchor="start" x="131" y="-53.3" font-family="Helvetica,sans-Serif" font-size="9.00">de.tu_clausthal.in.mec.modeling.model.petrinet.</text>
<text text-anchor="middle" x="244.5" y="-43.3" font-family="Helvetica,sans-Serif" font-size="9.00">CPetrinetEdge</text>
<polyline fill="none" stroke="black" points="123,-36.5 366,-36.5 "/>
<text text-anchor="start" x="131" y="-25.3" font-family="Helvetica,sans-Serif" font-size="9.00">&#45; m_capacity</text>
<polyline fill="none" stroke="black" points="123,-18.5 366,-18.5 "/>
<text text-anchor="start" x="131" y="-7.3" font-family="Helvetica,sans-Serif" font-size="9.00">+ CPetrinetEdge()</text>
</g>
<!-- Node5 -->
<g id="node2" class="node"><title>Node5</title>
<g id="a_node2"><a xlink:href="../../d0/d34/classde_1_1tu__clausthal_1_1in_1_1mec_1_1modeling_1_1model_1_1graph_1_1IBaseEdge.htm" target="_top" xlink:title="abstract class of an edge ">
<polygon fill="none" stroke="black" points="0,-101.5 0,-235.5 233,-235.5 233,-101.5 0,-101.5"/>
<text text-anchor="start" x="8" y="-224.3" font-family="Helvetica,sans-Serif" font-size="9.00">de.tu_clausthal.in.mec.modeling.model.graph.</text>
<text text-anchor="middle" x="116.5" y="-214.3" font-family="Helvetica,sans-Serif" font-size="9.00">IBaseEdge</text>
<polyline fill="none" stroke="black" points="0,-207.5 233,-207.5 "/>
<text text-anchor="start" x="8" y="-196.3" font-family="Helvetica,sans-Serif" font-size="9.00"># m_id</text>
<text text-anchor="start" x="8" y="-186.3" font-family="Helvetica,sans-Serif" font-size="9.00">&#45; m_weightfunction</text>
<polyline fill="none" stroke="black" points="0,-179.5 233,-179.5 "/>
<text text-anchor="start" x="8" y="-168.3" font-family="Helvetica,sans-Serif" font-size="9.00">+ equals()</text>
<text text-anchor="start" x="8" y="-158.3" font-family="Helvetica,sans-Serif" font-size="9.00">+ get()</text>
<text text-anchor="start" x="8" y="-148.3" font-family="Helvetica,sans-Serif" font-size="9.00">+ hashCode()</text>
<text text-anchor="start" x="8" y="-138.3" font-family="Helvetica,sans-Serif" font-size="9.00">+ id()</text>
<text text-anchor="start" x="8" y="-128.3" font-family="Helvetica,sans-Serif" font-size="9.00">+ raw()</text>
<text text-anchor="start" x="8" y="-118.3" font-family="Helvetica,sans-Serif" font-size="9.00"># IBaseEdge()</text>
<text text-anchor="start" x="8" y="-108.3" font-family="Helvetica,sans-Serif" font-size="9.00"># IBaseEdge()</text>
</a>
</g>
</g>
<!-- Node5&#45;&gt;Node4 -->
<g id="edge1" class="edge"><title>Node5&#45;&gt;Node4</title>
<path fill="none" stroke="midnightblue" d="M186.9,-93.7995C196.69,-83.5514 206.277,-73.5145 214.734,-64.6608"/>
<polygon fill="none" stroke="midnightblue" points="184.126,-91.6364 179.75,-101.285 189.188,-96.4716 184.126,-91.6364"/>
</g>
<!-- Node6 -->
<g id="node3" class="node"><title>Node6</title>
<g id="a_node3"><a xlink:href="../../d3/d76/interfacede_1_1tu__clausthal_1_1in_1_1mec_1_1modeling_1_1model_1_1graph_1_1IEdge.htm" target="_top" xlink:title="interface of an edge ">
<polygon fill="none" stroke="black" points="128,-272.5 128,-346.5 361,-346.5 361,-272.5 128,-272.5"/>
<text text-anchor="start" x="136" y="-335.3" font-family="Helvetica,sans-Serif" font-size="9.00">de.tu_clausthal.in.mec.modeling.model.graph.</text>
<text text-anchor="middle" x="244.5" y="-325.3" font-family="Helvetica,sans-Serif" font-size="9.00">IEdge</text>
<polyline fill="none" stroke="black" points="128,-318.5 361,-318.5 "/>
<text text-anchor="middle" x="244.5" y="-307.3" font-family="Helvetica,sans-Serif" font-size="9.00"> </text>
<polyline fill="none" stroke="black" points="128,-300.5 361,-300.5 "/>
<text text-anchor="start" x="136" y="-289.3" font-family="Helvetica,sans-Serif" font-size="9.00">+ id()</text>
<text text-anchor="start" x="136" y="-279.3" font-family="Helvetica,sans-Serif" font-size="9.00">+ raw()</text>
</a>
</g>
</g>
<!-- Node6&#45;&gt;Node5 -->
<g id="edge2" class="edge"><title>Node6&#45;&gt;Node5</title>
<path fill="none" stroke="midnightblue" d="M204.212,-264.75C195.686,-255.491 186.506,-245.523 177.41,-235.645"/>
<polygon fill="none" stroke="midnightblue" points="201.855,-267.357 211.204,-272.342 207.004,-262.615 201.855,-267.357"/>
</g>
<!-- Node7 -->
<g id="node4" class="node"><title>Node7</title>
<g id="a_node4"><a xlink:href="../../d6/d27/interfacede_1_1tu__clausthal_1_1in_1_1mec_1_1modeling_1_1model_1_1petrinet_1_1IPetrinetEdge.htm" target="_top" xlink:title="connection / edge interface between transition and place ">
<polygon fill="none" stroke="black" points="251,-136.5 251,-200.5 494,-200.5 494,-136.5 251,-136.5"/>
<text text-anchor="start" x="259" y="-189.3" font-family="Helvetica,sans-Serif" font-size="9.00">de.tu_clausthal.in.mec.modeling.model.petrinet.</text>
<text text-anchor="middle" x="372.5" y="-179.3" font-family="Helvetica,sans-Serif" font-size="9.00">IPetrinetEdge</text>
<polyline fill="none" stroke="black" points="251,-172.5 494,-172.5 "/>
<text text-anchor="middle" x="372.5" y="-161.3" font-family="Helvetica,sans-Serif" font-size="9.00"> </text>
<polyline fill="none" stroke="black" points="251,-154.5 494,-154.5 "/>
<text text-anchor="middle" x="372.5" y="-143.3" font-family="Helvetica,sans-Serif" font-size="9.00"> </text>
</a>
</g>
</g>
<!-- Node6&#45;&gt;Node7 -->
<g id="edge4" class="edge"><title>Node6&#45;&gt;Node7</title>
<path fill="none" stroke="midnightblue" d="M284.686,-264.861C303.835,-244.066 326.302,-219.668 343.717,-200.757"/>
<polygon fill="none" stroke="midnightblue" points="281.996,-262.615 277.796,-272.342 287.145,-267.357 281.996,-262.615"/>
</g>
<!-- Node7&#45;&gt;Node4 -->
<g id="edge3" class="edge"><title>Node7&#45;&gt;Node4</title>
<path fill="none" stroke="midnightblue" d="M335.853,-129.135C316.406,-108.777 292.81,-84.0741 274.47,-64.8747"/>
<polygon fill="none" stroke="midnightblue" points="333.374,-131.607 342.812,-136.421 338.436,-126.772 333.374,-131.607"/>
</g>
</g>
</svg>
