<?xml version="1.0" encoding="UTF-8" standalone="no"?>
<!DOCTYPE svg PUBLIC "-//W3C//DTD SVG 1.1//EN"
 "http://www.w3.org/Graphics/SVG/1.1/DTD/svg11.dtd">
<!-- Generated by graphviz version 2.38.0 (20140413.2041)
 -->
<!-- Title: de.tu_clausthal.in.mec.modeling.model.petrinet.ITransition Pages: 1 -->
<svg width="251pt" height="396pt"
 viewBox="0.00 0.00 251.00 396.00" xmlns="http://www.w3.org/2000/svg" xmlns:xlink="http://www.w3.org/1999/xlink">
<g id="graph0" class="graph" transform="scale(1 1) rotate(0) translate(4 392)">
<title>de.tu_clausthal.in.mec.modeling.model.petrinet.ITransition</title>
<!-- Node0 -->
<g id="node1" class="node"><title>Node0</title>
<polygon fill="#bfbfbf" stroke="black" points="0,-111.5 0,-175.5 243,-175.5 243,-111.5 0,-111.5"/>
<text text-anchor="start" x="8" y="-164.3" font-family="Helvetica,sans-Serif" font-size="9.00">de.tu_clausthal.in.mec.modeling.model.petrinet.</text>
<text text-anchor="middle" x="121.5" y="-154.3" font-family="Helvetica,sans-Serif" font-size="9.00">ITransition</text>
<polyline fill="none" stroke="black" points="0,-147.5 243,-147.5 "/>
<text text-anchor="middle" x="121.5" y="-136.3" font-family="Helvetica,sans-Serif" font-size="9.00"> </text>
<polyline fill="none" stroke="black" points="0,-129.5 243,-129.5 "/>
<text text-anchor="middle" x="121.5" y="-118.3" font-family="Helvetica,sans-Serif" font-size="9.00"> </text>
</g>
<!-- Node3 -->
<g id="node4" class="node"><title>Node3</title>
<g id="a_node4"><a xlink:href="../../db/d15/classde_1_1tu__clausthal_1_1in_1_1mec_1_1modeling_1_1model_1_1petrinet_1_1CTransition.htm" target="_top" xlink:title="transition class ">
<polygon fill="none" stroke="black" points="0,-0.5 0,-74.5 243,-74.5 243,-0.5 0,-0.5"/>
<text text-anchor="start" x="8" y="-63.3" font-family="Helvetica,sans-Serif" font-size="9.00">de.tu_clausthal.in.mec.modeling.model.petrinet.</text>
<text text-anchor="middle" x="121.5" y="-53.3" font-family="Helvetica,sans-Serif" font-size="9.00">CTransition</text>
<polyline fill="none" stroke="black" points="0,-46.5 243,-46.5 "/>
<text text-anchor="middle" x="121.5" y="-35.3" font-family="Helvetica,sans-Serif" font-size="9.00"> </text>
<polyline fill="none" stroke="black" points="0,-28.5 243,-28.5 "/>
<text text-anchor="start" x="8" y="-17.3" font-family="Helvetica,sans-Serif" font-size="9.00">+ CTransition()</text>
<text text-anchor="start" x="8" y="-7.3" font-family="Helvetica,sans-Serif" font-size="9.00">+ apply()</text>
</a>
</g>
</g>
<!-- Node0&#45;&gt;Node3 -->
<g id="edge3" class="edge"><title>Node0&#45;&gt;Node3</title>
<path fill="none" stroke="midnightblue" d="M121.5,-101.282C121.5,-92.5308 121.5,-83.3534 121.5,-74.8011"/>
<polygon fill="none" stroke="midnightblue" points="118,-101.297 121.5,-111.297 125,-101.297 118,-101.297"/>
</g>
<!-- Node1 -->
<g id="node2" class="node"><title>Node1</title>
<g id="a_node2"><a xlink:href="../../dd/d9f/interfacede_1_1tu__clausthal_1_1in_1_1mec_1_1modeling_1_1model_1_1petrinet_1_1IPetrinetNode.htm" target="_top" xlink:title="petrinet node ">
<polygon fill="none" stroke="black" points="0,-212.5 0,-276.5 243,-276.5 243,-212.5 0,-212.5"/>
<text text-anchor="start" x="8" y="-265.3" font-family="Helvetica,sans-Serif" font-size="9.00">de.tu_clausthal.in.mec.modeling.model.petrinet.</text>
<text text-anchor="middle" x="121.5" y="-255.3" font-family="Helvetica,sans-Serif" font-size="9.00">IPetrinetNode</text>
<polyline fill="none" stroke="black" points="0,-248.5 243,-248.5 "/>
<text text-anchor="middle" x="121.5" y="-237.3" font-family="Helvetica,sans-Serif" font-size="9.00"> </text>
<polyline fill="none" stroke="black" points="0,-230.5 243,-230.5 "/>
<text text-anchor="middle" x="121.5" y="-219.3" font-family="Helvetica,sans-Serif" font-size="9.00"> </text>
</a>
</g>
</g>
<!-- Node1&#45;&gt;Node0 -->
<g id="edge1" class="edge"><title>Node1&#45;&gt;Node0</title>
<path fill="none" stroke="midnightblue" d="M121.5,-202.282C121.5,-193.42 121.5,-184.194 121.5,-175.783"/>
<polygon fill="none" stroke="midnightblue" points="118,-202.447 121.5,-212.447 125,-202.447 118,-202.447"/>
</g>
<!-- Node2 -->
<g id="node3" class="node"><title>Node2</title>
<g id="a_node3"><a xlink:href="../../d4/db2/interfacede_1_1tu__clausthal_1_1in_1_1mec_1_1modeling_1_1model_1_1graph_1_1INode.htm" target="_top" xlink:title="node interface ">
<polygon fill="none" stroke="black" points="5,-313.5 5,-387.5 238,-387.5 238,-313.5 5,-313.5"/>
<text text-anchor="start" x="13" y="-376.3" font-family="Helvetica,sans-Serif" font-size="9.00">de.tu_clausthal.in.mec.modeling.model.graph.</text>
<text text-anchor="middle" x="121.5" y="-366.3" font-family="Helvetica,sans-Serif" font-size="9.00">INode</text>
<polyline fill="none" stroke="black" points="5,-359.5 238,-359.5 "/>
<text text-anchor="middle" x="121.5" y="-348.3" font-family="Helvetica,sans-Serif" font-size="9.00"> </text>
<polyline fill="none" stroke="black" points="5,-341.5 238,-341.5 "/>
<text text-anchor="start" x="13" y="-330.3" font-family="Helvetica,sans-Serif" font-size="9.00">+ id()</text>
<text text-anchor="start" x="13" y="-320.3" font-family="Helvetica,sans-Serif" font-size="9.00">+ raw()</text>
</a>
</g>
</g>
<!-- Node2&#45;&gt;Node1 -->
<g id="edge2" class="edge"><title>Node2&#45;&gt;Node1</title>
<path fill="none" stroke="midnightblue" d="M121.5,-303.38C121.5,-294.347 121.5,-285.074 121.5,-276.67"/>
<polygon fill="none" stroke="midnightblue" points="118,-303.418 121.5,-313.418 125,-303.418 118,-303.418"/>
</g>
</g>
</svg>
