<?xml version="1.0" encoding="UTF-8" standalone="no"?>
<!DOCTYPE svg PUBLIC "-//W3C//DTD SVG 1.1//EN"
 "http://www.w3.org/Graphics/SVG/1.1/DTD/svg11.dtd">
<!-- Generated by graphviz version 2.38.0 (20140413.2041)
 -->
<!-- Title: de.tu_clausthal.in.mec.modeling.model.petrinet.CPetrinet.CSerializer.CSerializer Pages: 1 -->
<svg width="530pt" height="84pt"
 viewBox="0.00 0.00 530.00 84.00" xmlns="http://www.w3.org/2000/svg" xmlns:xlink="http://www.w3.org/1999/xlink">
<g id="graph0" class="graph" transform="scale(1 1) rotate(0) translate(4 80)">
<title>de.tu_clausthal.in.mec.modeling.model.petrinet.CPetrinet.CSerializer.CSerializer</title>
<!-- Node0 -->
<g id="node1" class="node"><title>Node0</title>
<polygon fill="#bfbfbf" stroke="black" points="0,-23.5 0,-51.5 243,-51.5 243,-23.5 0,-23.5"/>
<text text-anchor="start" x="8" y="-40.3" font-family="Helvetica,sans-Serif" font-size="9.00">de.tu_clausthal.in.mec.modeling.model.petrinet.</text>
<text text-anchor="middle" x="121.5" y="-30.3" font-family="Helvetica,sans-Serif" font-size="9.00">CPetrinet.CSerializer.CSerializer</text>
</g>
<!-- Node1 -->
<g id="node2" class="node"><title>Node1</title>
<g id="a_node2"><a xlink:href="../../d4/db2/interfacede_1_1tu__clausthal_1_1in_1_1mec_1_1modeling_1_1model_1_1graph_1_1INode.htm#a3e21b8b077cd013202a8ca831eb0b92f" target="_top" xlink:title="id of the node ">
<polygon fill="none" stroke="black" points="284,-47.5 284,-75.5 517,-75.5 517,-47.5 284,-47.5"/>
<text text-anchor="start" x="292" y="-64.3" font-family="Helvetica,sans-Serif" font-size="9.00">de.tu_clausthal.in.mec.modeling.model.graph.</text>
<text text-anchor="middle" x="400.5" y="-54.3" font-family="Helvetica,sans-Serif" font-size="9.00">INode.id</text>
</a>
</g>
</g>
<!-- Node0&#45;&gt;Node1 -->
<g id="edge1" class="edge"><title>Node0&#45;&gt;Node1</title>
<path fill="none" stroke="midnightblue" d="M243.19,-47.9569C253.25,-48.8285 263.437,-49.7112 273.535,-50.586"/>
<polygon fill="midnightblue" stroke="midnightblue" points="273.33,-54.0813 283.594,-51.4576 273.934,-47.1074 273.33,-54.0813"/>
</g>
<!-- Node2 -->
<g id="node3" class="node"><title>Node2</title>
<g id="a_node3"><a xlink:href="../../d6/db3/classde_1_1tu__clausthal_1_1in_1_1mec_1_1modeling_1_1model_1_1petrinet_1_1CPetrinet.htm#a5ab50fce6bfa6f5486ba0daedce38077" target="_top" xlink:title="casting method to cast a model into its subtype ">
<polygon fill="none" stroke="black" points="279,-0.5 279,-28.5 522,-28.5 522,-0.5 279,-0.5"/>
<text text-anchor="start" x="287" y="-17.3" font-family="Helvetica,sans-Serif" font-size="9.00">de.tu_clausthal.in.mec.modeling.model.petrinet.</text>
<text text-anchor="middle" x="400.5" y="-7.3" font-family="Helvetica,sans-Serif" font-size="9.00">CPetrinet.raw</text>
</a>
</g>
</g>
<!-- Node0&#45;&gt;Node2 -->
<g id="edge2" class="edge"><title>Node0&#45;&gt;Node2</title>
<path fill="none" stroke="midnightblue" d="M243.19,-27.4788C251.678,-26.774 260.257,-26.0617 268.796,-25.3527"/>
<polygon fill="midnightblue" stroke="midnightblue" points="269.118,-28.8381 278.794,-24.5225 268.538,-21.8621 269.118,-28.8381"/>
</g>
</g>
</svg>
