<?xml version="1.0" encoding="UTF-8" standalone="no"?>
<!DOCTYPE svg PUBLIC "-//W3C//DTD SVG 1.1//EN"
 "http://www.w3.org/Graphics/SVG/1.1/DTD/svg11.dtd">
<!-- Generated by graphviz version 2.38.0 (20140413.2041)
 -->
<!-- Title: de.tu_clausthal.in.mec.modeling.model.petrinet.CTransition Pages: 1 -->
<svg width="502pt" height="436pt"
 viewBox="0.00 0.00 502.00 436.00" xmlns="http://www.w3.org/2000/svg" xmlns:xlink="http://www.w3.org/1999/xlink">
<g id="graph0" class="graph" transform="scale(1 1) rotate(0) translate(4 432)">
<title>de.tu_clausthal.in.mec.modeling.model.petrinet.CTransition</title>
<!-- Node0 -->
<g id="node1" class="node"><title>Node0</title>
<polygon fill="#bfbfbf" stroke="black" points="123,-0.5 123,-74.5 366,-74.5 366,-0.5 123,-0.5"/>
<text text-anchor="start" x="131" y="-63.3" font-family="Helvetica,sans-Serif" font-size="9.00">de.tu_clausthal.in.mec.modeling.model.petrinet.</text>
<text text-anchor="middle" x="244.5" y="-53.3" font-family="Helvetica,sans-Serif" font-size="9.00">CTransition</text>
<polyline fill="none" stroke="black" points="123,-46.5 366,-46.5 "/>
<text text-anchor="middle" x="244.5" y="-35.3" font-family="Helvetica,sans-Serif" font-size="9.00"> </text>
<polyline fill="none" stroke="black" points="123,-28.5 366,-28.5 "/>
<text text-anchor="start" x="131" y="-17.3" font-family="Helvetica,sans-Serif" font-size="9.00">+ CTransition()</text>
<text text-anchor="start" x="131" y="-7.3" font-family="Helvetica,sans-Serif" font-size="9.00">+ apply()</text>
</g>
<!-- Node1 -->
<g id="node2" class="node"><title>Node1</title>
<g id="a_node2"><a xlink:href="../../d5/d3e/classde_1_1tu__clausthal_1_1in_1_1mec_1_1modeling_1_1model_1_1graph_1_1IBaseNode.htm" target="_top" xlink:title="abstract class of an node ">
<polygon fill="none" stroke="black" points="0,-111.5 0,-215.5 233,-215.5 233,-111.5 0,-111.5"/>
<text text-anchor="start" x="8" y="-204.3" font-family="Helvetica,sans-Serif" font-size="9.00">de.tu_clausthal.in.mec.modeling.model.graph.</text>
<text text-anchor="middle" x="116.5" y="-194.3" font-family="Helvetica,sans-Serif" font-size="9.00">IBaseNode</text>
<polyline fill="none" stroke="black" points="0,-187.5 233,-187.5 "/>
<text text-anchor="start" x="8" y="-176.3" font-family="Helvetica,sans-Serif" font-size="9.00"># m_id</text>
<polyline fill="none" stroke="black" points="0,-169.5 233,-169.5 "/>
<text text-anchor="start" x="8" y="-158.3" font-family="Helvetica,sans-Serif" font-size="9.00">+ equals()</text>
<text text-anchor="start" x="8" y="-148.3" font-family="Helvetica,sans-Serif" font-size="9.00">+ hashCode()</text>
<text text-anchor="start" x="8" y="-138.3" font-family="Helvetica,sans-Serif" font-size="9.00">+ id()</text>
<text text-anchor="start" x="8" y="-128.3" font-family="Helvetica,sans-Serif" font-size="9.00">+ raw()</text>
<text text-anchor="start" x="8" y="-118.3" font-family="Helvetica,sans-Serif" font-size="9.00"># IBaseNode()</text>
</a>
</g>
</g>
<!-- Node1&#45;&gt;Node0 -->
<g id="edge1" class="edge"><title>Node1&#45;&gt;Node0</title>
<path fill="none" stroke="midnightblue" d="M176.78,-104.104C187.103,-94.1037 197.555,-83.9781 207.058,-74.7723"/>
<polygon fill="none" stroke="midnightblue" points="174.049,-101.877 169.301,-111.349 178.919,-106.904 174.049,-101.877"/>
</g>
<!-- Node2 -->
<g id="node3" class="node"><title>Node2</title>
<g id="a_node3"><a xlink:href="../../d4/db2/interfacede_1_1tu__clausthal_1_1in_1_1mec_1_1modeling_1_1model_1_1graph_1_1INode.htm" target="_top" xlink:title="node interface ">
<polygon fill="none" stroke="black" points="141,-353.5 141,-427.5 374,-427.5 374,-353.5 141,-353.5"/>
<text text-anchor="start" x="149" y="-416.3" font-family="Helvetica,sans-Serif" font-size="9.00">de.tu_clausthal.in.mec.modeling.model.graph.</text>
<text text-anchor="middle" x="257.5" y="-406.3" font-family="Helvetica,sans-Serif" font-size="9.00">INode</text>
<polyline fill="none" stroke="black" points="141,-399.5 374,-399.5 "/>
<text text-anchor="middle" x="257.5" y="-388.3" font-family="Helvetica,sans-Serif" font-size="9.00"> </text>
<polyline fill="none" stroke="black" points="141,-381.5 374,-381.5 "/>
<text text-anchor="start" x="149" y="-370.3" font-family="Helvetica,sans-Serif" font-size="9.00">+ id()</text>
<text text-anchor="start" x="149" y="-360.3" font-family="Helvetica,sans-Serif" font-size="9.00">+ raw()</text>
</a>
</g>
</g>
<!-- Node2&#45;&gt;Node1 -->
<g id="edge2" class="edge"><title>Node2&#45;&gt;Node1</title>
<path fill="none" stroke="midnightblue" d="M229.436,-344.718C206.113,-307.5 172.922,-254.535 148.556,-215.653"/>
<polygon fill="none" stroke="midnightblue" points="226.57,-346.735 234.846,-353.35 232.501,-343.018 226.57,-346.735"/>
</g>
<!-- Node4 -->
<g id="node5" class="node"><title>Node4</title>
<g id="a_node5"><a xlink:href="../../dd/d9f/interfacede_1_1tu__clausthal_1_1in_1_1mec_1_1modeling_1_1model_1_1petrinet_1_1IPetrinetNode.htm" target="_top" xlink:title="petrinet node ">
<polygon fill="none" stroke="black" points="224,-252.5 224,-316.5 467,-316.5 467,-252.5 224,-252.5"/>
<text text-anchor="start" x="232" y="-305.3" font-family="Helvetica,sans-Serif" font-size="9.00">de.tu_clausthal.in.mec.modeling.model.petrinet.</text>
<text text-anchor="middle" x="345.5" y="-295.3" font-family="Helvetica,sans-Serif" font-size="9.00">IPetrinetNode</text>
<polyline fill="none" stroke="black" points="224,-288.5 467,-288.5 "/>
<text text-anchor="middle" x="345.5" y="-277.3" font-family="Helvetica,sans-Serif" font-size="9.00"> </text>
<polyline fill="none" stroke="black" points="224,-270.5 467,-270.5 "/>
<text text-anchor="middle" x="345.5" y="-259.3" font-family="Helvetica,sans-Serif" font-size="9.00"> </text>
</a>
</g>
</g>
<!-- Node2&#45;&gt;Node4 -->
<g id="edge5" class="edge"><title>Node2&#45;&gt;Node4</title>
<path fill="none" stroke="midnightblue" d="M294.557,-345.705C302.813,-335.949 311.403,-325.797 319.125,-316.67"/>
<polygon fill="none" stroke="midnightblue" points="291.819,-343.523 288.031,-353.418 297.162,-348.045 291.819,-343.523"/>
</g>
<!-- Node3 -->
<g id="node4" class="node"><title>Node3</title>
<g id="a_node4"><a xlink:href="../../de/d17/interfacede_1_1tu__clausthal_1_1in_1_1mec_1_1modeling_1_1model_1_1petrinet_1_1ITransition.htm" target="_top" xlink:title="interface of a petri&#45;net transition ">
<polygon fill="none" stroke="black" points="251,-131.5 251,-195.5 494,-195.5 494,-131.5 251,-131.5"/>
<text text-anchor="start" x="259" y="-184.3" font-family="Helvetica,sans-Serif" font-size="9.00">de.tu_clausthal.in.mec.modeling.model.petrinet.</text>
<text text-anchor="middle" x="372.5" y="-174.3" font-family="Helvetica,sans-Serif" font-size="9.00">ITransition</text>
<polyline fill="none" stroke="black" points="251,-167.5 494,-167.5 "/>
<text text-anchor="middle" x="372.5" y="-156.3" font-family="Helvetica,sans-Serif" font-size="9.00"> </text>
<polyline fill="none" stroke="black" points="251,-149.5 494,-149.5 "/>
<text text-anchor="middle" x="372.5" y="-138.3" font-family="Helvetica,sans-Serif" font-size="9.00"> </text>
</a>
</g>
</g>
<!-- Node3&#45;&gt;Node0 -->
<g id="edge3" class="edge"><title>Node3&#45;&gt;Node0</title>
<path fill="none" stroke="midnightblue" d="M332.906,-124.143C316.609,-108.356 297.829,-90.1625 281.781,-74.6159"/>
<polygon fill="none" stroke="midnightblue" points="330.582,-126.765 340.2,-131.21 335.453,-121.738 330.582,-126.765"/>
</g>
<!-- Node4&#45;&gt;Node3 -->
<g id="edge4" class="edge"><title>Node4&#45;&gt;Node3</title>
<path fill="none" stroke="midnightblue" d="M354.815,-242.444C358.303,-227.072 362.204,-209.877 365.453,-195.557"/>
<polygon fill="none" stroke="midnightblue" points="351.393,-241.708 352.594,-252.234 358.22,-243.256 351.393,-241.708"/>
</g>
</g>
</svg>
