<?xml version="1.0" encoding="UTF-8" standalone="no"?>
<!DOCTYPE svg PUBLIC "-//W3C//DTD SVG 1.1//EN"
 "http://www.w3.org/Graphics/SVG/1.1/DTD/svg11.dtd">
<!-- Generated by graphviz version 2.38.0 (20140413.2041)
 -->
<!-- Title: de.tu_clausthal.in.mec.modeling.model.graph.INode Pages: 1 -->
<!--zoomable 476 -->
<svg id="main" version="1.1" xmlns="http://www.w3.org/2000/svg" xmlns:xlink="http://www.w3.org/1999/xlink" xml:space="preserve" onload="init(evt)">
<style type="text/css"><![CDATA[
.edge:hover path { stroke: red; }
.edge:hover polygon { stroke: red; fill: red; }
]]></style>
<script type="text/javascript"><![CDATA[
var edges = document.getElementsByTagName('g');
if (edges && edges.length) {
  for (var i=0;i<edges.length;i++) {
    if (edges[i].id.substr(0,4)=='edge') {
      edges[i].setAttribute('class','edge');
    }
  }
}
]]></script>
        <defs>
                <circle id="rim" cx="0" cy="0" r="7"/>
                <circle id="rim2" cx="0" cy="0" r="3.5"/>
                <g id="zoomPlus">
                        <use xlink:href="#rim" fill="#404040">
                                <set attributeName="fill" to="#808080" begin="zoomplus.mouseover" end="zoomplus.mouseout"/>
                        </use>
                        <path d="M-4,0h8M0,-4v8" fill="none" stroke="white" stroke-width="1.5" pointer-events="none"/>
                </g>
                <g id="zoomMin">
                        <use xlink:href="#rim" fill="#404040">
                                <set attributeName="fill" to="#808080" begin="zoomminus.mouseover" end="zoomminus.mouseout"/>
                        </use>
                        <path d="M-4,0h8" fill="none" stroke="white" stroke-width="1.5" pointer-events="none"/>
                </g>
                <g id="dirArrow">
                        <path fill="none" stroke="white" stroke-width="1.5" d="M0,-3.0v7 M-2.5,-0.5L0,-3.0L2.5,-0.5"/>
                </g>
               <g id="resetDef">
                       <use xlink:href="#rim2" fill="#404040">
                               <set attributeName="fill" to="#808080" begin="reset.mouseover" end="reset.mouseout"/>
                       </use>
               </g>
        </defs>

<script type="text/javascript">
var viewWidth = 763;
var viewHeight = 476;
var sectionId = 'dynsection-0';
</script>
<script xlink:href="../../svgpan.js"/>
<svg id="graph" class="graph">
<g id="viewport">
<title>de.tu_clausthal.in.mec.modeling.model.graph.INode</title>
<!-- Node0 -->
<g id="node1" class="node"><title>Node0</title>
<polygon fill="#bfbfbf" stroke="black" points="367,-393.5 367,-467.5 600,-467.5 600,-393.5 367,-393.5"/>
<text text-anchor="start" x="375" y="-456.3" font-family="Helvetica,sans-Serif" font-size="9.00">de.tu_clausthal.in.mec.modeling.model.graph.</text>
<text text-anchor="middle" x="483.5" y="-446.3" font-family="Helvetica,sans-Serif" font-size="9.00">INode</text>
<polyline fill="none" stroke="black" points="367,-439.5 600,-439.5 "/>
<text text-anchor="middle" x="483.5" y="-428.3" font-family="Helvetica,sans-Serif" font-size="9.00"> </text>
<polyline fill="none" stroke="black" points="367,-421.5 600,-421.5 "/>
<text text-anchor="start" x="375" y="-410.3" font-family="Helvetica,sans-Serif" font-size="9.00">+ id()</text>
<text text-anchor="start" x="375" y="-400.3" font-family="Helvetica,sans-Serif" font-size="9.00">+ raw()</text>
</g>
<!-- Node1 -->
<g id="node2" class="node"><title>Node1</title>
<g id="a_node2"><a xlink:href="../../d5/d3e/classde_1_1tu__clausthal_1_1in_1_1mec_1_1modeling_1_1model_1_1graph_1_1IBaseNode.htm" target="_top" xlink:title="abstract class of an node ">
<polygon fill="none" stroke="black" points="522,-151.5 522,-255.5 755,-255.5 755,-151.5 522,-151.5"/>
<text text-anchor="start" x="530" y="-244.3" font-family="Helvetica,sans-Serif" font-size="9.00">de.tu_clausthal.in.mec.modeling.model.graph.</text>
<text text-anchor="middle" x="638.5" y="-234.3" font-family="Helvetica,sans-Serif" font-size="9.00">IBaseNode</text>
<polyline fill="none" stroke="black" points="522,-227.5 755,-227.5 "/>
<text text-anchor="start" x="530" y="-216.3" font-family="Helvetica,sans-Serif" font-size="9.00"># m_id</text>
<polyline fill="none" stroke="black" points="522,-209.5 755,-209.5 "/>
<text text-anchor="start" x="530" y="-198.3" font-family="Helvetica,sans-Serif" font-size="9.00">+ equals()</text>
<text text-anchor="start" x="530" y="-188.3" font-family="Helvetica,sans-Serif" font-size="9.00">+ hashCode()</text>
<text text-anchor="start" x="530" y="-178.3" font-family="Helvetica,sans-Serif" font-size="9.00">+ id()</text>
<text text-anchor="start" x="530" y="-168.3" font-family="Helvetica,sans-Serif" font-size="9.00">+ raw()</text>
<text text-anchor="start" x="530" y="-158.3" font-family="Helvetica,sans-Serif" font-size="9.00"># IBaseNode()</text>
</a>
</g>
</g>
<!-- Node0&#45;&gt;Node1 -->
<g id="edge1" class="edge"><title>Node0&#45;&gt;Node1</title>
<path fill="none" stroke="midnightblue" d="M514.35,-384.718C539.989,-347.5 576.476,-294.535 603.261,-255.653"/>
<polygon fill="none" stroke="midnightblue" points="511.194,-383.129 508.403,-393.35 516.959,-387.1 511.194,-383.129"/>
</g>
<!-- Node4 -->
<g id="node5" class="node"><title>Node4</title>
<g id="a_node5"><a xlink:href="../../dd/d9f/interfacede_1_1tu__clausthal_1_1in_1_1mec_1_1modeling_1_1model_1_1petrinet_1_1IPetrinetNode.htm" target="_top" xlink:title="petrinet node ">
<polygon fill="none" stroke="black" points="261,-292.5 261,-356.5 504,-356.5 504,-292.5 261,-292.5"/>
<text text-anchor="start" x="269" y="-345.3" font-family="Helvetica,sans-Serif" font-size="9.00">de.tu_clausthal.in.mec.modeling.model.petrinet.</text>
<text text-anchor="middle" x="382.5" y="-335.3" font-family="Helvetica,sans-Serif" font-size="9.00">IPetrinetNode</text>
<polyline fill="none" stroke="black" points="261,-328.5 504,-328.5 "/>
<text text-anchor="middle" x="382.5" y="-317.3" font-family="Helvetica,sans-Serif" font-size="9.00"> </text>
<polyline fill="none" stroke="black" points="261,-310.5 504,-310.5 "/>
<text text-anchor="middle" x="382.5" y="-299.3" font-family="Helvetica,sans-Serif" font-size="9.00"> </text>
</a>
</g>
</g>
<!-- Node0&#45;&gt;Node4 -->
<g id="edge4" class="edge"><title>Node0&#45;&gt;Node4</title>
<path fill="none" stroke="midnightblue" d="M441.25,-385.995C431.689,-376.15 421.722,-365.887 412.771,-356.67"/>
<polygon fill="none" stroke="midnightblue" points="438.981,-388.682 448.459,-393.418 444.003,-383.806 438.981,-388.682"/>
</g>
<!-- Node2 -->
<g id="node3" class="node"><title>Node2</title>
<g id="a_node3"><a xlink:href="../../de/dc7/classde_1_1tu__clausthal_1_1in_1_1mec_1_1modeling_1_1model_1_1petrinet_1_1CPlace.htm" target="_top" xlink:title="petrinet place ">
<polygon fill="none" stroke="black" points="389,-0.5 389,-114.5 632,-114.5 632,-0.5 389,-0.5"/>
<text text-anchor="start" x="397" y="-103.3" font-family="Helvetica,sans-Serif" font-size="9.00">de.tu_clausthal.in.mec.modeling.model.petrinet.</text>
<text text-anchor="middle" x="510.5" y="-93.3" font-family="Helvetica,sans-Serif" font-size="9.00">CPlace</text>
<polyline fill="none" stroke="black" points="389,-86.5 632,-86.5 "/>
<text text-anchor="start" x="397" y="-75.3" font-family="Helvetica,sans-Serif" font-size="9.00">&#45; m_capacity</text>
<text text-anchor="start" x="397" y="-65.3" font-family="Helvetica,sans-Serif" font-size="9.00">&#45; m_marks</text>
<polyline fill="none" stroke="black" points="389,-58.5 632,-58.5 "/>
<text text-anchor="start" x="397" y="-47.3" font-family="Helvetica,sans-Serif" font-size="9.00">+ CPlace()</text>
<text text-anchor="start" x="397" y="-37.3" font-family="Helvetica,sans-Serif" font-size="9.00">+ CPlace()</text>
<text text-anchor="start" x="397" y="-27.3" font-family="Helvetica,sans-Serif" font-size="9.00">+ accept()</text>
<text text-anchor="start" x="397" y="-17.3" font-family="Helvetica,sans-Serif" font-size="9.00">+ apply()</text>
<text text-anchor="start" x="397" y="-7.3" font-family="Helvetica,sans-Serif" font-size="9.00">+ get()</text>
</a>
</g>
</g>
<!-- Node1&#45;&gt;Node2 -->
<g id="edge2" class="edge"><title>Node1&#45;&gt;Node2</title>
<path fill="none" stroke="midnightblue" d="M586.288,-143.761C577.812,-134.226 569.051,-124.37 560.627,-114.893"/>
<polygon fill="none" stroke="midnightblue" points="583.752,-146.177 593.012,-151.326 588.984,-141.526 583.752,-146.177"/>
</g>
<!-- Node3 -->
<g id="node4" class="node"><title>Node3</title>
<g id="a_node4"><a xlink:href="../../db/d15/classde_1_1tu__clausthal_1_1in_1_1mec_1_1modeling_1_1model_1_1petrinet_1_1CTransition.htm" target="_top" xlink:title="transition class ">
<polygon fill="none" stroke="black" points="64,-20.5 64,-94.5 307,-94.5 307,-20.5 64,-20.5"/>
<text text-anchor="start" x="72" y="-83.3" font-family="Helvetica,sans-Serif" font-size="9.00">de.tu_clausthal.in.mec.modeling.model.petrinet.</text>
<text text-anchor="middle" x="185.5" y="-73.3" font-family="Helvetica,sans-Serif" font-size="9.00">CTransition</text>
<polyline fill="none" stroke="black" points="64,-66.5 307,-66.5 "/>
<text text-anchor="middle" x="185.5" y="-55.3" font-family="Helvetica,sans-Serif" font-size="9.00"> </text>
<polyline fill="none" stroke="black" points="64,-48.5 307,-48.5 "/>
<text text-anchor="start" x="72" y="-37.3" font-family="Helvetica,sans-Serif" font-size="9.00">+ CTransition()</text>
<text text-anchor="start" x="72" y="-27.3" font-family="Helvetica,sans-Serif" font-size="9.00">+ apply()</text>
</a>
</g>
</g>
<!-- Node1&#45;&gt;Node3 -->
<g id="edge3" class="edge"><title>Node1&#45;&gt;Node3</title>
<path fill="none" stroke="midnightblue" d="M512.108,-150.627C453.336,-131.211 435.869,-130.779 379.5,-115 356.106,-108.452 331.173,-101.312 307.245,-94.3796"/>
<polygon fill="none" stroke="midnightblue" points="511.313,-154.052 521.907,-153.911 513.538,-147.415 511.313,-154.052"/>
</g>
<!-- Node5 -->
<g id="node6" class="node"><title>Node5</title>
<g id="a_node6"><a xlink:href="../../d8/d0b/interfacede_1_1tu__clausthal_1_1in_1_1mec_1_1modeling_1_1model_1_1petrinet_1_1IPlace.htm" target="_top" xlink:title="interface of a petri&#45;net place ">
<polygon fill="none" stroke="black" points="261,-171.5 261,-235.5 504,-235.5 504,-171.5 261,-171.5"/>
<text text-anchor="start" x="269" y="-224.3" font-family="Helvetica,sans-Serif" font-size="9.00">de.tu_clausthal.in.mec.modeling.model.petrinet.</text>
<text text-anchor="middle" x="382.5" y="-214.3" font-family="Helvetica,sans-Serif" font-size="9.00">IPlace</text>
<polyline fill="none" stroke="black" points="261,-207.5 504,-207.5 "/>
<text text-anchor="middle" x="382.5" y="-196.3" font-family="Helvetica,sans-Serif" font-size="9.00"> </text>
<polyline fill="none" stroke="black" points="261,-189.5 504,-189.5 "/>
<text text-anchor="middle" x="382.5" y="-178.3" font-family="Helvetica,sans-Serif" font-size="9.00"> </text>
</a>
</g>
</g>
<!-- Node4&#45;&gt;Node5 -->
<g id="edge5" class="edge"><title>Node4&#45;&gt;Node5</title>
<path fill="none" stroke="midnightblue" d="M382.5,-282.005C382.5,-266.745 382.5,-249.741 382.5,-235.557"/>
<polygon fill="none" stroke="midnightblue" points="379,-282.234 382.5,-292.234 386,-282.234 379,-282.234"/>
</g>
<!-- Node6 -->
<g id="node7" class="node"><title>Node6</title>
<g id="a_node7"><a xlink:href="../../de/d17/interfacede_1_1tu__clausthal_1_1in_1_1mec_1_1modeling_1_1model_1_1petrinet_1_1ITransition.htm" target="_top" xlink:title="interface of a petri&#45;net transition ">
<polygon fill="none" stroke="black" points="0,-171.5 0,-235.5 243,-235.5 243,-171.5 0,-171.5"/>
<text text-anchor="start" x="8" y="-224.3" font-family="Helvetica,sans-Serif" font-size="9.00">de.tu_clausthal.in.mec.modeling.model.petrinet.</text>
<text text-anchor="middle" x="121.5" y="-214.3" font-family="Helvetica,sans-Serif" font-size="9.00">ITransition</text>
<polyline fill="none" stroke="black" points="0,-207.5 243,-207.5 "/>
<text text-anchor="middle" x="121.5" y="-196.3" font-family="Helvetica,sans-Serif" font-size="9.00"> </text>
<polyline fill="none" stroke="black" points="0,-189.5 243,-189.5 "/>
<text text-anchor="middle" x="121.5" y="-178.3" font-family="Helvetica,sans-Serif" font-size="9.00"> </text>
</a>
</g>
</g>
<!-- Node4&#45;&gt;Node6 -->
<g id="edge7" class="edge"><title>Node4&#45;&gt;Node6</title>
<path fill="none" stroke="midnightblue" d="M305.112,-288.216C268.5,-271.523 225.163,-251.764 189.788,-235.635"/>
<polygon fill="none" stroke="midnightblue" points="303.715,-291.426 314.266,-292.39 306.619,-285.056 303.715,-291.426"/>
</g>
<!-- Node5&#45;&gt;Node2 -->
<g id="edge6" class="edge"><title>Node5&#45;&gt;Node2</title>
<path fill="none" stroke="midnightblue" d="M417.057,-163.623C430.444,-148.563 446.028,-131.031 460.588,-114.651"/>
<polygon fill="none" stroke="midnightblue" points="414.302,-161.455 410.274,-171.254 419.534,-166.105 414.302,-161.455"/>
</g>
<!-- Node6&#45;&gt;Node3 -->
<g id="edge8" class="edge"><title>Node6&#45;&gt;Node3</title>
<path fill="none" stroke="midnightblue" d="M139.558,-161.87C148.976,-140.678 160.398,-114.98 169.497,-94.5078"/>
<polygon fill="none" stroke="midnightblue" points="136.25,-160.695 135.387,-171.254 142.647,-163.538 136.25,-160.695"/>
</g>
</g>
</svg>
        <g id="navigator" transform="translate(0 0)" fill="#404254">
                <rect fill="#f2f5e9" fill-opacity="0.5" stroke="#606060" stroke-width=".5" x="0" y="0" width="60" height="60"/>
                <use id="zoomplus" xlink:href="#zoomPlus" x="17" y="9" onmousedown="handleZoom(evt,'in')"/>
                <use id="zoomminus" xlink:href="#zoomMin" x="42" y="9" onmousedown="handleZoom(evt,'out')"/>
                <use id="reset" xlink:href="#resetDef" x="30" y="36" onmousedown="handleReset()"/>
                <g id="arrowUp" xlink:href="#dirArrow" transform="translate(30 24)" onmousedown="handlePan(0,-1)">
                  <use xlink:href="#rim" fill="#404040">
                        <set attributeName="fill" to="#808080" begin="arrowUp.mouseover" end="arrowUp.mouseout"/>
                  </use>
                  <path fill="none" stroke="white" stroke-width="1.5" d="M0,-3.0v7 M-2.5,-0.5L0,-3.0L2.5,-0.5"/>
                </g>
                <g id="arrowRight" xlink:href="#dirArrow" transform="rotate(90) translate(36 -43)" onmousedown="handlePan(1,0)">
                  <use xlink:href="#rim" fill="#404040">
                        <set attributeName="fill" to="#808080" begin="arrowRight.mouseover" end="arrowRight.mouseout"/>
                  </use>
                  <path fill="none" stroke="white" stroke-width="1.5" d="M0,-3.0v7 M-2.5,-0.5L0,-3.0L2.5,-0.5"/>
                </g>
                <g id="arrowDown" xlink:href="#dirArrow" transform="rotate(180) translate(-30 -48)" onmousedown="handlePan(0,1)">
                  <use xlink:href="#rim" fill="#404040">
                        <set attributeName="fill" to="#808080" begin="arrowDown.mouseover" end="arrowDown.mouseout"/>
                  </use>
                  <path fill="none" stroke="white" stroke-width="1.5" d="M0,-3.0v7 M-2.5,-0.5L0,-3.0L2.5,-0.5"/>
                </g>
                <g id="arrowLeft" xlink:href="#dirArrow" transform="rotate(270) translate(-36 17)" onmousedown="handlePan(-1,0)">
                  <use xlink:href="#rim" fill="#404040">
                        <set attributeName="fill" to="#808080" begin="arrowLeft.mouseover" end="arrowLeft.mouseout"/>
                  </use>
                  <path fill="none" stroke="white" stroke-width="1.5" d="M0,-3.0v7 M-2.5,-0.5L0,-3.0L2.5,-0.5"/>
                </g>
        </g>
        <svg viewBox="0 0 15 15" width="100%" height="30px" preserveAspectRatio="xMaxYMin meet">
         <g id="arrow_out" transform="scale(0.3 0.3)">
          <a xlink:href="interfacede_1_1tu__clausthal_1_1in_1_1mec_1_1modeling_1_1model_1_1graph_1_1INode__inherit__graph_org.svg" target="_base">
           <rect id="button" ry="5" rx="5" y="6" x="6" height="38" width="38"
                fill="#f2f5e9" fill-opacity="0.5" stroke="#606060" stroke-width="1.0"/>
           <path id="arrow"
             d="M 11.500037,31.436501 C 11.940474,20.09759 22.043105,11.32322 32.158766,21.979434 L 37.068811,17.246167 C 37.068811,17.246167 37.088388,32 37.088388,32 L 22.160133,31.978069 C 22.160133,31.978069 26.997745,27.140456 26.997745,27.140456 C 18.528582,18.264221 13.291696,25.230495 11.500037,31.436501 z"
             style="fill:#404040;"/>
          </a>
         </g>
        </svg>
</svg>
