<?xml version="1.0" encoding="UTF-8" standalone="no"?>
<!DOCTYPE svg PUBLIC "-//W3C//DTD SVG 1.1//EN"
 "http://www.w3.org/Graphics/SVG/1.1/DTD/svg11.dtd">
<!-- Generated by graphviz version 2.38.0 (20140413.2041)
 -->
<!-- Title: de.tu_clausthal.in.mec.modeling.controller.CPetrinetController.transition Pages: 1 -->
<svg width="505pt" height="84pt"
 viewBox="0.00 0.00 505.00 84.00" xmlns="http://www.w3.org/2000/svg" xmlns:xlink="http://www.w3.org/1999/xlink">
<g id="graph0" class="graph" transform="scale(1 1) rotate(0) translate(4 80)">
<title>de.tu_clausthal.in.mec.modeling.controller.CPetrinetController.transition</title>
<!-- Node9 -->
<g id="node1" class="node"><title>Node9</title>
<polygon fill="#bfbfbf" stroke="black" points="0,-23.5 0,-51.5 218,-51.5 218,-23.5 0,-23.5"/>
<text text-anchor="start" x="8" y="-40.3" font-family="Helvetica,sans-Serif" font-size="9.00">de.tu_clausthal.in.mec.modeling.controller.</text>
<text text-anchor="middle" x="109" y="-30.3" font-family="Helvetica,sans-Serif" font-size="9.00">CPetrinetController.transition</text>
</g>
<!-- Node10 -->
<g id="node2" class="node"><title>Node10</title>
<g id="a_node2"><a xlink:href="../../d1/d3e/interfacede_1_1tu__clausthal_1_1in_1_1mec_1_1modeling_1_1model_1_1petrinet_1_1IPetrinet.htm#ad6fc5d101be42edcbd58adbf86adc515" target="_top" xlink:title="adds a transition ">
<polygon fill="none" stroke="black" points="254,-47.5 254,-75.5 497,-75.5 497,-47.5 254,-47.5"/>
<text text-anchor="start" x="262" y="-64.3" font-family="Helvetica,sans-Serif" font-size="9.00">de.tu_clausthal.in.mec.modeling.model.petrinet.</text>
<text text-anchor="middle" x="375.5" y="-54.3" font-family="Helvetica,sans-Serif" font-size="9.00">IPetrinet.addTransition</text>
</a>
</g>
</g>
<!-- Node9&#45;&gt;Node10 -->
<g id="edge1" class="edge"><title>Node9&#45;&gt;Node10</title>
<path fill="none" stroke="midnightblue" d="M218.345,-47.331C226.754,-48.0939 235.296,-48.869 243.829,-49.6432"/>
<polygon fill="midnightblue" stroke="midnightblue" points="243.558,-53.1329 253.833,-50.551 244.19,-46.1616 243.558,-53.1329"/>
</g>
<!-- Node11 -->
<g id="node3" class="node"><title>Node11</title>
<g id="a_node3"><a xlink:href="../../d3/d97/interfacede_1_1tu__clausthal_1_1in_1_1mec_1_1modeling_1_1model_1_1IModel.htm#a1a4f4e0c9d3fc68d464eb34685b58759" target="_top" xlink:title="creates an object representation for serializing ">
<polygon fill="none" stroke="black" points="274,-0.5 274,-28.5 477,-28.5 477,-0.5 274,-0.5"/>
<text text-anchor="start" x="282" y="-17.3" font-family="Helvetica,sans-Serif" font-size="9.00">de.tu_clausthal.in.mec.modeling.model.</text>
<text text-anchor="middle" x="375.5" y="-7.3" font-family="Helvetica,sans-Serif" font-size="9.00">IModel.serialize</text>
</a>
</g>
</g>
<!-- Node9&#45;&gt;Node11 -->
<g id="edge2" class="edge"><title>Node9&#45;&gt;Node11</title>
<path fill="none" stroke="midnightblue" d="M218.345,-28.0787C233.299,-26.7784 248.674,-25.4414 263.671,-24.1373"/>
<polygon fill="midnightblue" stroke="midnightblue" points="264.325,-27.5938 273.984,-23.2405 263.718,-20.6201 264.325,-27.5938"/>
</g>
</g>
</svg>
