<?xml version="1.0" encoding="UTF-8" standalone="no"?>
<!DOCTYPE svg PUBLIC "-//W3C//DTD SVG 1.1//EN"
 "http://www.w3.org/Graphics/SVG/1.1/DTD/svg11.dtd">
<!-- Generated by graphviz version 2.38.0 (20140413.2041)
 -->
<!-- Title: de.tu_clausthal.in.mec.modeling.model.petrinet.IPetrinetNode Pages: 1 -->
<svg width="251pt" height="184pt"
 viewBox="0.00 0.00 251.00 184.00" xmlns="http://www.w3.org/2000/svg" xmlns:xlink="http://www.w3.org/1999/xlink">
<g id="graph0" class="graph" transform="scale(1 1) rotate(0) translate(4 180)">
<title>de.tu_clausthal.in.mec.modeling.model.petrinet.IPetrinetNode</title>
<!-- Node6 -->
<g id="node1" class="node"><title>Node6</title>
<polygon fill="#bfbfbf" stroke="black" points="0,-0.5 0,-64.5 243,-64.5 243,-0.5 0,-0.5"/>
<text text-anchor="start" x="8" y="-53.3" font-family="Helvetica,sans-Serif" font-size="9.00">de.tu_clausthal.in.mec.modeling.model.petrinet.</text>
<text text-anchor="middle" x="121.5" y="-43.3" font-family="Helvetica,sans-Serif" font-size="9.00">IPetrinetNode</text>
<polyline fill="none" stroke="black" points="0,-36.5 243,-36.5 "/>
<text text-anchor="middle" x="121.5" y="-25.3" font-family="Helvetica,sans-Serif" font-size="9.00"> </text>
<polyline fill="none" stroke="black" points="0,-18.5 243,-18.5 "/>
<text text-anchor="middle" x="121.5" y="-7.3" font-family="Helvetica,sans-Serif" font-size="9.00"> </text>
</g>
<!-- Node7 -->
<g id="node2" class="node"><title>Node7</title>
<g id="a_node2"><a xlink:href="../../d4/db2/interfacede_1_1tu__clausthal_1_1in_1_1mec_1_1modeling_1_1model_1_1graph_1_1INode.htm" target="_top" xlink:title="node interface ">
<polygon fill="none" stroke="black" points="5,-101.5 5,-175.5 238,-175.5 238,-101.5 5,-101.5"/>
<text text-anchor="start" x="13" y="-164.3" font-family="Helvetica,sans-Serif" font-size="9.00">de.tu_clausthal.in.mec.modeling.model.graph.</text>
<text text-anchor="middle" x="121.5" y="-154.3" font-family="Helvetica,sans-Serif" font-size="9.00">INode</text>
<polyline fill="none" stroke="black" points="5,-147.5 238,-147.5 "/>
<text text-anchor="middle" x="121.5" y="-136.3" font-family="Helvetica,sans-Serif" font-size="9.00"> </text>
<polyline fill="none" stroke="black" points="5,-129.5 238,-129.5 "/>
<text text-anchor="start" x="13" y="-118.3" font-family="Helvetica,sans-Serif" font-size="9.00">+ id()</text>
<text text-anchor="start" x="13" y="-108.3" font-family="Helvetica,sans-Serif" font-size="9.00">+ raw()</text>
</a>
</g>
</g>
<!-- Node7&#45;&gt;Node6 -->
<g id="edge1" class="edge"><title>Node7&#45;&gt;Node6</title>
<path fill="none" stroke="midnightblue" d="M121.5,-91.38C121.5,-82.3468 121.5,-73.0739 121.5,-64.6704"/>
<polygon fill="none" stroke="midnightblue" points="118,-91.4177 121.5,-101.418 125,-91.4178 118,-91.4177"/>
</g>
</g>
</svg>
