<?xml version="1.0" encoding="UTF-8" standalone="no"?>
<!DOCTYPE svg PUBLIC "-//W3C//DTD SVG 1.1//EN"
 "http://www.w3.org/Graphics/SVG/1.1/DTD/svg11.dtd">
<!-- Generated by graphviz version 2.38.0 (20140413.2041)
 -->
<!-- Title: de.tu_clausthal.in.mec.modeling.model.IModel.serialize Pages: 1 -->
<svg width="465pt" height="84pt"
 viewBox="0.00 0.00 465.00 84.00" xmlns="http://www.w3.org/2000/svg" xmlns:xlink="http://www.w3.org/1999/xlink">
<g id="graph0" class="graph" transform="scale(1 1) rotate(0) translate(4 80)">
<title>de.tu_clausthal.in.mec.modeling.model.IModel.serialize</title>
<!-- Node9 -->
<g id="node1" class="node"><title>Node9</title>
<polygon fill="#bfbfbf" stroke="black" points="0,-23.5 0,-51.5 203,-51.5 203,-23.5 0,-23.5"/>
<text text-anchor="start" x="8" y="-40.3" font-family="Helvetica,sans-Serif" font-size="9.00">de.tu_clausthal.in.mec.modeling.model.</text>
<text text-anchor="middle" x="101.5" y="-30.3" font-family="Helvetica,sans-Serif" font-size="9.00">IModel.serialize</text>
</g>
<!-- Node10 -->
<g id="node2" class="node"><title>Node10</title>
<g id="a_node2"><a xlink:href="../../de/d92/classde_1_1tu__clausthal_1_1in_1_1mec_1_1modeling_1_1controller_1_1CPetrinetController.htm#a206e18396c2c58fe887843506ee8329f" target="_top" xlink:title="add place ">
<polygon fill="none" stroke="black" points="239,-47.5 239,-75.5 457,-75.5 457,-47.5 239,-47.5"/>
<text text-anchor="start" x="247" y="-64.3" font-family="Helvetica,sans-Serif" font-size="9.00">de.tu_clausthal.in.mec.modeling.controller.</text>
<text text-anchor="middle" x="348" y="-54.3" font-family="Helvetica,sans-Serif" font-size="9.00">CPetrinetController.place</text>
</a>
</g>
</g>
<!-- Node9&#45;&gt;Node10 -->
<g id="edge1" class="edge"><title>Node9&#45;&gt;Node10</title>
<path fill="none" stroke="midnightblue" d="M213.064,-48.3529C221.672,-49.1979 230.358,-50.0504 238.948,-50.8937"/>
<polygon fill="midnightblue" stroke="midnightblue" points="213.3,-44.8593 203.006,-47.3656 212.616,-51.8259 213.3,-44.8593"/>
</g>
<!-- Node11 -->
<g id="node3" class="node"><title>Node11</title>
<g id="a_node3"><a xlink:href="../../de/d92/classde_1_1tu__clausthal_1_1in_1_1mec_1_1modeling_1_1controller_1_1CPetrinetController.htm#a4206f8a1def594eab6c2bde39404137c" target="_top" xlink:title="add transition ">
<polygon fill="none" stroke="black" points="239,-0.5 239,-28.5 457,-28.5 457,-0.5 239,-0.5"/>
<text text-anchor="start" x="247" y="-17.3" font-family="Helvetica,sans-Serif" font-size="9.00">de.tu_clausthal.in.mec.modeling.controller.</text>
<text text-anchor="middle" x="348" y="-7.3" font-family="Helvetica,sans-Serif" font-size="9.00">CPetrinetController.transition</text>
</a>
</g>
</g>
<!-- Node9&#45;&gt;Node11 -->
<g id="edge2" class="edge"><title>Node9&#45;&gt;Node11</title>
<path fill="none" stroke="midnightblue" d="M213.064,-27.0993C221.672,-26.2896 230.358,-25.4725 238.948,-24.6644"/>
<polygon fill="midnightblue" stroke="midnightblue" points="212.634,-23.6242 203.006,-28.0455 213.29,-30.5934 212.634,-23.6242"/>
</g>
</g>
</svg>
