<?xml version="1.0" encoding="UTF-8" standalone="no"?>
<!DOCTYPE svg PUBLIC "-//W3C//DTD SVG 1.1//EN"
 "http://www.w3.org/Graphics/SVG/1.1/DTD/svg11.dtd">
<!-- Generated by graphviz version 2.38.0 (20140413.2041)
 -->
<!-- Title: de.tu_clausthal.in.mec.modeling.model.IChecker&lt; T extends IModel&lt;?&gt; Pages: 1 -->
<svg width="423pt" height="306pt"
 viewBox="0.00 0.00 423.00 306.00" xmlns="http://www.w3.org/2000/svg" xmlns:xlink="http://www.w3.org/1999/xlink">
<g id="graph0" class="graph" transform="scale(1 1) rotate(0) translate(4 302)">
<title>de.tu_clausthal.in.mec.modeling.model.IChecker&lt; T extends IModel&lt;?&gt;</title>
<!-- Node0 -->
<g id="node1" class="node"><title>Node0</title>
<polygon fill="#bfbfbf" stroke="black" points="164,-233.5 164,-297.5 367,-297.5 367,-233.5 164,-233.5"/>
<text text-anchor="start" x="172" y="-286.3" font-family="Helvetica,sans-Serif" font-size="9.00">de.tu_clausthal.in.mec.modeling.model.</text>
<text text-anchor="middle" x="265.5" y="-276.3" font-family="Helvetica,sans-Serif" font-size="9.00">IChecker&lt; T extends IModel&lt;?&gt;</text>
<polyline fill="none" stroke="black" points="164,-269.5 367,-269.5 "/>
<text text-anchor="middle" x="265.5" y="-258.3" font-family="Helvetica,sans-Serif" font-size="9.00"> </text>
<polyline fill="none" stroke="black" points="164,-251.5 367,-251.5 "/>
<text text-anchor="middle" x="265.5" y="-240.3" font-family="Helvetica,sans-Serif" font-size="9.00"> </text>
</g>
<!-- Node1 -->
<g id="node2" class="node"><title>Node1</title>
<g id="a_node2"><a xlink:href="../../de/dd9/interfacede_1_1tu__clausthal_1_1in_1_1mec_1_1modeling_1_1model_1_1petrinet_1_1IPetrinetChecker.htm" target="_top" xlink:title="petrinet model checker ">
<polygon fill="none" stroke="black" points="49.5,-102.5 49.5,-186.5 193.5,-186.5 193.5,-102.5 49.5,-102.5"/>
<text text-anchor="start" x="57.5" y="-175.3" font-family="Helvetica,sans-Serif" font-size="9.00">de::tu_clausthal::in</text>
<text text-anchor="start" x="57.5" y="-165.3" font-family="Helvetica,sans-Serif" font-size="9.00">::mec::modeling::model</text>
<text text-anchor="start" x="57.5" y="-155.3" font-family="Helvetica,sans-Serif" font-size="9.00">::petrinet::IPetrinetChecker</text>
<text text-anchor="middle" x="121.5" y="-145.3" font-family="Helvetica,sans-Serif" font-size="9.00">&lt; IPetrinet &gt;</text>
<polyline fill="none" stroke="black" points="49.5,-138.5 193.5,-138.5 "/>
<text text-anchor="middle" x="121.5" y="-127.3" font-family="Helvetica,sans-Serif" font-size="9.00"> </text>
<polyline fill="none" stroke="black" points="49.5,-120.5 193.5,-120.5 "/>
<text text-anchor="middle" x="121.5" y="-109.3" font-family="Helvetica,sans-Serif" font-size="9.00"> </text>
</a>
</g>
</g>
<!-- Node0&#45;&gt;Node1 -->
<g id="edge1" class="edge"><title>Node0&#45;&gt;Node1</title>
<path fill="none" stroke="midnightblue" d="M219.778,-226.715C204.332,-213.952 187.017,-199.643 171.274,-186.633"/>
<polygon fill="none" stroke="midnightblue" points="217.728,-229.562 227.666,-233.234 222.187,-224.166 217.728,-229.562"/>
</g>
<!-- Node3 -->
<g id="node4" class="node"><title>Node3</title>
<g id="a_node4"><a xlink:href="../../d0/d73/namespacede_1_1tu__clausthal_1_1in_1_1mec_1_1modeling_1_1model.htm#dc/dce/interfacede_1_1tu__clausthal_1_1in_1_1mec_1_1modeling_1_1model_1_1IChecker" target="_top" xlink:title="{de.tu_clausthal.in.mec.modeling.model.\lIChecker\&lt; IPetrinet \&gt;\n||}">
<polygon fill="none" stroke="black" points="212,-112.5 212,-176.5 415,-176.5 415,-112.5 212,-112.5"/>
<text text-anchor="start" x="220" y="-165.3" font-family="Helvetica,sans-Serif" font-size="9.00">de.tu_clausthal.in.mec.modeling.model.</text>
<text text-anchor="middle" x="313.5" y="-155.3" font-family="Helvetica,sans-Serif" font-size="9.00">IChecker&lt; IPetrinet &gt;</text>
<polyline fill="none" stroke="black" points="212,-148.5 415,-148.5 "/>
<text text-anchor="middle" x="313.5" y="-137.3" font-family="Helvetica,sans-Serif" font-size="9.00"> </text>
<polyline fill="none" stroke="black" points="212,-130.5 415,-130.5 "/>
<text text-anchor="middle" x="313.5" y="-119.3" font-family="Helvetica,sans-Serif" font-size="9.00"> </text>
</a>
</g>
</g>
<!-- Node0&#45;&gt;Node3 -->
<g id="edge3" class="edge"><title>Node0&#45;&gt;Node3</title>
<path fill="none" stroke="orange" d="M281.883,-223.883C288.129,-208.4 295.142,-191.014 300.973,-176.557"/>
<polygon fill="orange" stroke="orange" points="278.606,-222.651 278.111,-233.234 285.098,-225.269 278.606,-222.651"/>
<text text-anchor="middle" x="321.5" y="-207.8" font-family="Helvetica,sans-Serif" font-size="9.00"> &lt; IPetrinet &gt;</text>
</g>
<!-- Node2 -->
<g id="node3" class="node"><title>Node2</title>
<g id="a_node3"><a xlink:href="../../d1/d20/classde_1_1tu__clausthal_1_1in_1_1mec_1_1modeling_1_1model_1_1petrinet_1_1CPetrinetChecker.htm" target="_top" xlink:title="petrinet model checker ">
<polygon fill="none" stroke="black" points="0,-0.5 0,-64.5 243,-64.5 243,-0.5 0,-0.5"/>
<text text-anchor="start" x="8" y="-53.3" font-family="Helvetica,sans-Serif" font-size="9.00">de.tu_clausthal.in.mec.modeling.model.petrinet.</text>
<text text-anchor="middle" x="121.5" y="-43.3" font-family="Helvetica,sans-Serif" font-size="9.00">CPetrinetChecker</text>
<polyline fill="none" stroke="black" points="0,-36.5 243,-36.5 "/>
<text text-anchor="middle" x="121.5" y="-25.3" font-family="Helvetica,sans-Serif" font-size="9.00"> </text>
<polyline fill="none" stroke="black" points="0,-18.5 243,-18.5 "/>
<text text-anchor="start" x="8" y="-7.3" font-family="Helvetica,sans-Serif" font-size="9.00">+ apply()</text>
</a>
</g>
</g>
<!-- Node1&#45;&gt;Node2 -->
<g id="edge2" class="edge"><title>Node1&#45;&gt;Node2</title>
<path fill="none" stroke="midnightblue" d="M121.5,-92.157C121.5,-82.7774 121.5,-73.2553 121.5,-64.6883"/>
<polygon fill="none" stroke="midnightblue" points="118,-92.2271 121.5,-102.227 125,-92.2271 118,-92.2271"/>
</g>
</g>
</svg>
